<?xml version="1.0" encoding="UTF-8"?>
<svg version="1.1" xmlns="http://www.w3.org/2000/svg" width="1024" height="1024">
<path d="M0 0 C337.92 0 675.84 0 1024 0 C1024 337.92 1024 675.84 1024 1024 C686.08 1024 348.16 1024 0 1024 C0 686.08 0 348.16 0 0 Z " fill="#D1FDFE" transform="translate(0,0)"/>
<path d="M0 0 C0.86455811 -0.00358521 1.72911621 -0.00717041 2.61987305 -0.01086426 C18.42728368 -0.04610514 33.89180252 1.26322345 49.4375 4.1875 C50.36804199 4.36112061 51.29858398 4.53474121 52.25732422 4.71362305 C59.71811294 6.14659696 66.96521501 7.93901589 74.1875 10.3125 C74.92645508 10.55339355 75.66541016 10.79428711 76.42675781 11.04248047 C88.68911778 15.07478692 100.5517439 19.72305994 112.1875 25.3125 C113.40276367 25.89161133 113.40276367 25.89161133 114.64257812 26.48242188 C134.51000388 36.07094782 152.85654186 48.47215281 169.1875 63.3125 C169.7252002 63.7967041 170.26290039 64.2809082 170.81689453 64.77978516 C181.73766636 74.62586453 192.12983343 84.68800284 201.1875 96.3125 C201.63319336 96.87646484 202.07888672 97.44042969 202.53808594 98.02148438 C231.49938334 134.7945799 249.84768253 178.14570895 255.75 224.625 C255.87930908 225.63900879 256.00861816 226.65301758 256.1418457 227.69775391 C257.04266497 234.89393393 257.88616993 242.06231598 258.1875 249.3125 C258.24035156 250.48039063 258.29320312 251.64828125 258.34765625 252.8515625 C258.80436962 272.98666487 256.14754507 293.58392805 252.1875 313.3125 C252.05263184 313.99602539 251.91776367 314.67955078 251.77880859 315.38378906 C249.34569219 327.41185932 245.50812544 338.84154372 241.1875 350.3125 C240.92098633 351.02873535 240.65447266 351.7449707 240.37988281 352.48291016 C233.81026292 369.93732687 225.24874461 387.26430031 214.1875 402.3125 C213.74970215 402.91578125 213.3119043 403.5190625 212.86083984 404.140625 C172.39509809 459.79300215 116.25490142 500.87636315 47.18212891 512.03051758 C32.24145353 514.34633289 17.66105185 515.49925135 2.5534668 515.49780273 C0.02179938 515.49998124 -2.50942523 515.51818206 -5.04101562 515.53710938 C-15.77967076 515.57462741 -26.18704478 514.85645215 -36.8125 513.3125 C-38.32203247 513.09339966 -38.32203247 513.09339966 -39.86206055 512.86987305 C-84.50061711 505.94089096 -128.29090857 486.91702079 -161.8125 456.3125 C-162.60398437 455.62800781 -163.39546875 454.94351562 -164.2109375 454.23828125 C-176.35715233 443.64565204 -188.00901011 432.11389365 -197.8125 419.3125 C-198.81241514 418.06269119 -199.81383487 416.81408528 -200.81640625 415.56640625 C-242.6607058 362.91227719 -260.25291182 293.81446807 -252.68115234 227.32836914 C-244.01043457 161.18305672 -210.6607693 98.66572851 -157.8125 57.3125 C-156.74471387 56.44440288 -155.67836861 55.5745312 -154.61328125 54.703125 C-122.87496289 28.93897036 -84.02392146 10.81490037 -43.8125 3.3125 C-43.05614258 3.16441895 -42.29978516 3.01633789 -41.52050781 2.86376953 C-27.74044261 0.27965961 -13.97370327 0.02328741 0 0 Z " fill="#0B263D" transform="translate(508.8125,236.6875)"/>
<path d="M0 0 C1.75957031 0.55107422 1.75957031 0.55107422 3.5546875 1.11328125 C18.59821601 6.16832374 33.26346075 13.07853569 47 21 C47.99386719 21.5671875 48.98773437 22.134375 50.01171875 22.71875 C60.18682447 28.74465953 69.58935681 35.85865561 79 43 C80.5159375 44.13695312 80.5159375 44.13695312 82.0625 45.296875 C82.701875 45.85890625 83.34125 46.4209375 84 47 C84 47.66 84 48.32 84 49 C84.52980469 49.21398437 85.05960938 49.42796875 85.60546875 49.6484375 C88.92038133 51.51949746 91.55362746 54.03617318 94.3125 56.625 C94.89644531 57.1705957 95.48039062 57.71619141 96.08203125 58.27832031 C100.35223205 62.30784574 104.2812138 66.4539736 108 71 C108.94968463 72.10358473 109.90029874 73.20636991 110.8515625 74.30859375 C126.10803338 92.23988534 137.15408239 112.53760107 146.4375 134.0625 C146.78014893 134.84834473 147.12279785 135.63418945 147.47583008 136.44384766 C149.3938484 141.00739163 150.53485877 145.0668825 151 150 C140.71313264 148.64858801 130.93495435 145.8921756 121 143 C120.67 138.71 120.34 134.42 120 130 C113.4 128.02 106.8 126.04 100 124 C100 177.13 100 230.26 100 285 C93.61525866 283.58116859 87.25629038 282.12161034 80.921875 280.5 C68.56335056 277.49260242 56.11872129 276.6071238 43.4375 276.625 C42.74611938 276.62587616 42.05473877 276.62675232 41.34240723 276.62765503 C15.29925942 276.73566361 -13.08118056 282.74782269 -34.34375 298.765625 C-36 300 -36 300 -38 300 C-38.07447267 295.41019186 -38.12875322 290.82073986 -38.16479492 286.23046875 C-38.17982869 284.67083606 -38.20026135 283.11124528 -38.22631836 281.55175781 C-38.26294211 279.30262884 -38.27978021 277.05406153 -38.29296875 274.8046875 C-38.30845261 274.1138205 -38.32393646 273.42295349 -38.33988953 272.71115112 C-38.34148349 268.06678067 -37.50025356 264.91483745 -35 261 C-32.45284687 259.35446767 -30.24158237 258.13756312 -27.5 256.9375 C-26.7575 256.60024902 -26.015 256.26299805 -25.25 255.91552734 C-16.78997372 252.2301284 -7.97527519 250.03012177 1 248 C2.11181641 247.73268066 2.11181641 247.73268066 3.24609375 247.45996094 C26.92883036 241.88815592 51.80140656 244.73010988 75 251 C75 245.39 75 239.78 75 234 C72.36 233.67 69.72 233.34 67 233 C65.92363281 232.82339844 64.84726562 232.64679688 63.73828125 232.46484375 C33.53891313 227.81613828 1.34069763 229.82958454 -24.265625 247.8671875 C-28.06638751 250.83178226 -31.63286703 254.00423809 -35.13671875 257.3125 C-37 259 -37 259 -38 259 C-38.12379331 253.39501978 -38.21443018 247.79083878 -38.2746582 242.18481445 C-38.29976999 240.27874893 -38.33386645 238.37277941 -38.37719727 236.46704102 C-38.43799744 233.72388002 -38.46624245 230.98199414 -38.48828125 228.23828125 C-38.52699089 226.96456413 -38.52699089 226.96456413 -38.56648254 225.66511536 C-38.56854686 221.28972495 -38.44744389 219.56429318 -35.64038086 216.02416992 C-28.57017112 210.60400266 -19.95001178 207.79689415 -11.5 205.25 C-10.8493457 205.05148437 -10.19869141 204.85296875 -9.52832031 204.6484375 C2.69229353 201.15854093 14.89068859 200.63020296 27.5 200.6875 C28.68305725 200.68923721 28.68305725 200.68923721 29.89001465 200.69100952 C45.31004889 200.73572848 60.544211 201.16208521 75 207 C75 201.39 75 195.78 75 190 C73.5975 189.87625 72.195 189.7525 70.75 189.625 C67.01567842 189.263342 63.40178498 188.70551365 59.72265625 187.98046875 C52.46342572 186.75588561 45.3067938 186.66301842 37.96508789 186.68432617 C35.70084173 186.68748141 33.4379136 186.66395109 31.17382812 186.63867188 C6.07788727 186.52912583 -17.06401426 194.26499056 -36 211 C-38 209 -38 209 -38.22705078 205.37646484 C-38.22673357 203.82125311 -38.21540299 202.26601949 -38.1953125 200.7109375 C-38.1924826 199.89251373 -38.18965271 199.07408997 -38.18673706 198.23086548 C-38.17552532 195.61209607 -38.15041929 192.99366636 -38.125 190.375 C-38.11497147 188.60156743 -38.1058454 186.82812951 -38.09765625 185.0546875 C-38.07558278 180.70299374 -38.04104644 176.3515545 -38 172 C-35.49608781 170.71993664 -32.98926731 169.44620476 -30.48046875 168.17578125 C-29.43240051 167.63878601 -29.43240051 167.63878601 -28.36315918 167.09094238 C0.39839925 152.57304508 39.91912896 151.23349387 70.3125 161.1875 C71.859375 161.785625 73.40625 162.38375 75 163 C74.67 157.39 74.34 151.78 74 146 C71.525 145.525625 69.05 145.05125 66.5 144.5625 C65.73751953 144.41498291 64.97503906 144.26746582 64.18945312 144.11547852 C54.40464884 142.26142335 44.95846937 141.75869774 35 141.75 C33.96020996 141.74898788 33.96020996 141.74898788 32.89941406 141.74795532 C22.63962927 141.76383045 12.94975671 142.16858352 3 145 C1.73800781 145.35191406 0.47601562 145.70382812 -0.82421875 146.06640625 C-13.15763881 149.73335056 -23.69225661 155.1215965 -32.9765625 164.08203125 C-35 166 -35 166 -38 168 C-38.07440448 162.84052654 -38.12872191 157.68136849 -38.16479492 152.52148438 C-38.17983995 150.76784827 -38.20028104 149.01424953 -38.22631836 147.26074219 C-38.26289121 144.73362991 -38.2797692 142.20701704 -38.29296875 139.6796875 C-38.30845261 138.90132538 -38.32393646 138.12296326 -38.33988953 137.3210144 C-38.3413753 132.46677584 -37.62739498 129.23487121 -35 125 C-29.63577392 120.0235493 -21.71517936 117.56336634 -15 115 C-13.59427734 114.45666016 -13.59427734 114.45666016 -12.16015625 113.90234375 C1.42618522 109.00082412 15.64765169 107.47299191 30 107 C31.05574219 106.95875 32.11148437 106.9175 33.19921875 106.875 C36.80673696 106.80400333 40.39554474 106.8644706 44 107 C44.91539551 107.03432129 45.83079102 107.06864258 46.77392578 107.10400391 C65.83519293 107.93670422 83.13349991 111.30006247 101 118 C101 109.42 101 100.84 101 92 C98.03 91.67 95.06 91.34 92 91 C90.3327507 90.72518854 88.66858229 90.42938623 87.01171875 90.09765625 C86.1511084 89.93040039 85.29049805 89.76314453 84.40380859 89.59082031 C83.50742676 89.41647461 82.61104492 89.24212891 81.6875 89.0625 C51.0492342 83.34914273 19.26243976 82.77710454 -11 91 C-12.06089844 91.28617187 -13.12179687 91.57234375 -14.21484375 91.8671875 C-27.07964907 95.76979958 -41.68588914 102.47233846 -51.140625 112.203125 C-53 114 -53 114 -55 114 C-55.26683594 114.57492187 -55.53367187 115.14984375 -55.80859375 115.7421875 C-57.04064495 118.07702551 -58.44838275 120.03894184 -60.0625 122.125 C-62.23226195 124.93627263 -62.23226195 124.93627263 -64 128 C-67.56431814 126.81189395 -67.81848033 126.05967325 -69.6875 122.9375 C-82.20050668 103.66564299 -107.00877909 93.09699751 -128.77490234 88.40136719 C-143.91041767 85.37772819 -158.59791593 84.27625658 -174 85 C-175.4840332 85.06598389 -175.4840332 85.06598389 -176.99804688 85.13330078 C-192.76326884 85.91853205 -208.01832278 88.37761493 -223.46411133 91.57275391 C-226 92 -226 92 -230 92 C-229.505 104.375 -229.505 104.375 -229 117 C-226.81375 116.236875 -224.6275 115.47375 -222.375 114.6875 C-184.76562074 101.99356424 -140.327756 103.36816607 -104.33203125 120.328125 C-101 122 -101 122 -100 123 C-99.91138008 125.8116338 -99.88477645 128.59858255 -99.90234375 131.41015625 C-99.90446617 132.67320839 -99.90446617 132.67320839 -99.90663147 133.96177673 C-99.91224737 136.66205335 -99.92480252 139.36224828 -99.9375 142.0625 C-99.94251295 143.88867068 -99.94707621 145.71484266 -99.95117188 147.54101562 C-99.96222196 152.02737542 -99.97949721 156.51367384 -100 161 C-101.08667969 160.29641357 -101.08667969 160.29641357 -102.1953125 159.57861328 C-121.45537963 147.19760013 -141.01984751 141.79647141 -163.8125 141.8125 C-165.00069336 141.81330566 -166.18888672 141.81411133 -167.41308594 141.81494141 C-174.56412384 141.864106 -181.63724571 142.12367803 -188.75 142.875 C-189.4922583 142.95339111 -190.2345166 143.03178223 -190.99926758 143.11254883 C-195.5893297 143.66645775 -199.47649336 144.70756953 -204 146 C-204 151.28 -204 156.56 -204 162 C-199.27339689 160.77945898 -199.27339689 160.77945898 -194.54980469 159.54736328 C-183.32688741 156.6964038 -172.51593348 155.63811739 -160.9375 155.6875 C-160.25846619 155.68932281 -159.57943237 155.69114563 -158.87982178 155.69302368 C-137.96516882 155.78725042 -119.16086283 159.48406096 -100 168 C-100 179.55 -100 191.1 -100 203 C-104.76308191 203 -106.31569824 201.80646742 -110.3125 199.3125 C-127.10778225 189.29018683 -145.86791467 186.42892134 -165.125 186.625 C-165.88237457 186.62765869 -166.63974915 186.63031738 -167.42007446 186.63305664 C-179.80489891 186.68394045 -191.82303829 187.62400747 -204 190 C-203.505 197.92 -203.505 197.92 -203 206 C-201.618125 205.54625 -200.23625 205.0925 -198.8125 204.625 C-186.91492413 201.11533888 -175.11668091 200.65325906 -162.80834961 200.68432617 C-160.20188361 200.68748258 -157.59656082 200.66395219 -154.99023438 200.63867188 C-134.99865149 200.56354535 -117.69963682 204.34565264 -100 214 C-100 226.54 -100 239.08 -100 252 C-107 248 -107 248 -110.0625 245.625 C-125.97623842 234.05460853 -147.65024627 230.62308272 -166.80810547 230.68432617 C-168.86609994 230.68748633 -170.9226504 230.66392268 -172.98046875 230.63867188 C-180.96690963 230.60253359 -188.25143905 231.40186539 -196.01611328 233.35473633 C-199 234 -199 234 -204 234 C-204 239.61 -204 245.22 -204 251 C-201.97875 250.38125 -199.9575 249.7625 -197.875 249.125 C-166.08033623 239.96570818 -129.44025233 244.27987383 -100 259 C-100 270.88 -100 282.76 -100 295 C-104.75429463 294.04914107 -108.36497968 292.45485661 -112.625 290.3125 C-150.44000188 271.93147409 -190.27270371 275.06817593 -230 285 C-230.33 232.2 -230.66 179.4 -231 125 C-240.9 126.98 -240.9 126.98 -251 129 C-251 200.61 -251 272.22 -251 346 C-236.15 346 -221.3 346 -206 346 C-197.64420104 348.28255972 -191.33482742 350.11044775 -184 354 C-182.62219233 354.64983647 -181.24072745 355.29198337 -179.85546875 355.92578125 C-176.53729282 357.47482766 -173.30183659 359.14094339 -170.07958984 360.87988281 C-167.80883486 362.10296615 -165.52369581 363.29673988 -163.23828125 364.4921875 C-152.06350801 370.41240957 -141.60788793 377.05714901 -131.29931641 384.37255859 C-129.01575591 385.98884807 -126.71911417 387.58465285 -124.41796875 389.17578125 C-117.30238086 394.11404905 -110.37332195 399.14869824 -103.73828125 404.7265625 C-101.13662617 406.88656715 -98.48884061 408.96531747 -95.81445312 411.03344727 C-89.84331646 415.65400795 -84.17839646 420.46440899 -78.640625 425.60546875 C-75.1544737 428.76672725 -71.4967252 431.68745063 -67.828125 434.6328125 C-65.24734165 436.79297094 -62.80345232 439.03211066 -60.36206055 441.34472656 C-55.57216514 445.88180726 -51.18578785 449.50189337 -45 452 C-45 452.33 -45 452.66 -45 453 C-95.28551019 462.01069836 -153.04625525 443.86262445 -194.29931641 415.18115234 C-200.86524506 410.49920221 -206.96812186 405.34389204 -213 400 C-213.84820312 399.26265625 -214.69640625 398.5253125 -215.5703125 397.765625 C-226.3120356 388.30185609 -236.14030491 378.24959357 -245 367 C-245.61746094 366.28457031 -246.23492187 365.56914063 -246.87109375 364.83203125 C-264.79610883 343.77666011 -277.87292028 316.57898582 -285 290 C-285.24387451 289.15026611 -285.48774902 288.30053223 -285.73901367 287.42504883 C-287.59271435 280.89563898 -288.971307 274.38472495 -290.0625 267.6875 C-290.23168945 266.65133545 -290.40087891 265.6151709 -290.57519531 264.54760742 C-298.41519735 214.86782572 -292.85363812 163.22896652 -270 118 C-269.43224854 116.87271484 -269.43224854 116.87271484 -268.85302734 115.72265625 C-262.7142263 103.73082146 -255.24563129 92.78968234 -247.35351562 81.89086914 C-246.20294374 80.28351358 -245.09648495 78.64472743 -244 77 C-243.34 77 -242.68 77 -242 77 C-241.72671875 76.40960938 -241.4534375 75.81921875 -241.171875 75.2109375 C-234.03500742 61.74604734 -218.68357099 50.27201089 -206.68066406 41.27490234 C-205.0658642 40.04996264 -203.48132339 38.78544125 -201.8984375 37.51953125 C-146.13972265 -6.87569868 -68.21010563 -21.91854678 0 0 Z " fill="#FBFDFD" transform="translate(576,272)"/>
<path d="M0 0 C0.86455811 -0.00358521 1.72911621 -0.00717041 2.61987305 -0.01086426 C18.42728368 -0.04610514 33.89180252 1.26322345 49.4375 4.1875 C50.36804199 4.36112061 51.29858398 4.53474121 52.25732422 4.71362305 C59.71811294 6.14659696 66.96521501 7.93901589 74.1875 10.3125 C74.92645508 10.55339355 75.66541016 10.79428711 76.42675781 11.04248047 C88.68911778 15.07478692 100.5517439 19.72305994 112.1875 25.3125 C113.40276367 25.89161133 113.40276367 25.89161133 114.64257812 26.48242188 C134.51000388 36.07094782 152.85654186 48.47215281 169.1875 63.3125 C169.7252002 63.7967041 170.26290039 64.2809082 170.81689453 64.77978516 C181.73766636 74.62586453 192.12983343 84.68800284 201.1875 96.3125 C201.63319336 96.87646484 202.07888672 97.44042969 202.53808594 98.02148438 C231.49938334 134.7945799 249.84768253 178.14570895 255.75 224.625 C255.87930908 225.63900879 256.00861816 226.65301758 256.1418457 227.69775391 C257.04266497 234.89393393 257.88616993 242.06231598 258.1875 249.3125 C258.24035156 250.48039063 258.29320312 251.64828125 258.34765625 252.8515625 C258.80436962 272.98666487 256.14754507 293.58392805 252.1875 313.3125 C252.05263184 313.99602539 251.91776367 314.67955078 251.77880859 315.38378906 C249.34569219 327.41185932 245.50812544 338.84154372 241.1875 350.3125 C240.92098633 351.02873535 240.65447266 351.7449707 240.37988281 352.48291016 C233.81026292 369.93732687 225.24874461 387.26430031 214.1875 402.3125 C213.74970215 402.91578125 213.3119043 403.5190625 212.86083984 404.140625 C172.39509809 459.79300215 116.25490142 500.87636315 47.18212891 512.03051758 C32.24145353 514.34633289 17.66105185 515.49925135 2.5534668 515.49780273 C0.02179938 515.49998124 -2.50942523 515.51818206 -5.04101562 515.53710938 C-15.77967076 515.57462741 -26.18704478 514.85645215 -36.8125 513.3125 C-38.32203247 513.09339966 -38.32203247 513.09339966 -39.86206055 512.86987305 C-84.50061711 505.94089096 -128.29090857 486.91702079 -161.8125 456.3125 C-162.60398437 455.62800781 -163.39546875 454.94351562 -164.2109375 454.23828125 C-176.35715233 443.64565204 -188.00901011 432.11389365 -197.8125 419.3125 C-198.81241514 418.06269119 -199.81383487 416.81408528 -200.81640625 415.56640625 C-242.6607058 362.91227719 -260.25291182 293.81446807 -252.68115234 227.32836914 C-244.01043457 161.18305672 -210.6607693 98.66572851 -157.8125 57.3125 C-156.74471387 56.44440288 -155.67836861 55.5745312 -154.61328125 54.703125 C-122.87496289 28.93897036 -84.02392146 10.81490037 -43.8125 3.3125 C-43.05614258 3.16441895 -42.29978516 3.01633789 -41.52050781 2.86376953 C-27.74044261 0.27965961 -13.97370327 0.02328741 0 0 Z M-141.23144531 78.0078125 C-142.80863896 79.30931387 -144.39964002 80.59235893 -145.9921875 81.875 C-156.13137654 90.14619912 -167.43903582 99.43071648 -174.8125 110.3125 C-174.8125 110.9725 -174.8125 111.6325 -174.8125 112.3125 C-175.4725 112.3125 -176.1325 112.3125 -176.8125 112.3125 C-179.52467739 115.48741022 -181.81449909 119.00485029 -184.1875 122.4375 C-184.90486328 123.47487305 -185.62222656 124.51224609 -186.36132812 125.58105469 C-209.13006014 159.04480552 -221.02747909 195.33297949 -225.8125 235.3125 C-225.94527344 236.38242187 -226.07804687 237.45234375 -226.21484375 238.5546875 C-232.02215434 294.71854064 -215.33668584 355.69502212 -180 399.890625 C-177.35358604 403.10666856 -174.60191255 406.22041507 -171.8125 409.3125 C-171.36551758 409.81442871 -170.91853516 410.31635742 -170.45800781 410.83349609 C-160.33347792 422.19352477 -149.8569635 432.96736307 -137.8125 442.3125 C-136.91402344 443.02792969 -136.01554687 443.74335937 -135.08984375 444.48046875 C-121.77814057 454.82587768 -107.11172111 463.2754633 -91.8125 470.3125 C-91.17086914 470.6110791 -90.52923828 470.9096582 -89.86816406 471.21728516 C-72.32927875 479.25922782 -52.92643601 484.72186595 -33.8125 487.3125 C-33.06742188 487.41401367 -32.32234375 487.51552734 -31.5546875 487.62011719 C24.1445354 494.80930842 86.78365945 483.9771088 132.1875 449.3125 C134.0198244 448.01940249 135.85316915 446.72774967 137.6875 445.4375 C142.65706566 441.82907073 147.15943969 437.84957877 151.6484375 433.6640625 C153.72080469 431.74473165 155.8278217 429.92744583 158 428.125 C196.12054113 394.84764237 222.37637406 343.26855829 228.1875 293.3125 C228.28756348 292.52262695 228.38762695 291.73275391 228.49072266 290.91894531 C231.55259401 266.18288222 231.33935487 241.46896623 226.69140625 216.96972656 C226.26480852 214.7201676 225.87209977 212.46995062 225.5 210.2109375 C219.48131085 176.28057743 204.97455427 143.08988513 183.1875 116.3125 C182.48496094 115.42046875 181.78242187 114.5284375 181.05859375 113.609375 C168.24295583 96.26096496 168.24295583 96.26096496 151.1875 84.3125 C151.1875 83.6525 151.1875 82.9925 151.1875 82.3125 C149.74087002 80.91565862 149.74087002 80.91565862 147.8203125 79.51953125 C146.74740967 78.70331299 146.74740967 78.70331299 145.65283203 77.87060547 C144.88052246 77.29455566 144.10821289 76.71850586 143.3125 76.125 C142.13276611 75.23772217 142.13276611 75.23772217 140.92919922 74.33251953 C138.68718133 72.65204687 136.43794861 70.98165389 134.1875 69.3125 C133.300625 68.64347656 132.41375 67.97445312 131.5 67.28515625 C113.06967485 53.82443663 91.74398916 43.64008756 70.1875 36.3125 C69.5579541 36.09110352 68.9284082 35.86970703 68.27978516 35.64160156 C54.62839122 30.90448091 40.47091662 29.13881472 26.1875 27.3125 C25.43049805 27.20574951 24.67349609 27.09899902 23.89355469 26.98901367 C16.76871629 26.05734233 9.61207855 26.1123428 2.4375 26.125 C1.75220215 26.12593658 1.0669043 26.12687317 0.36083984 26.12783813 C-52.40455651 26.28356295 -100.48858665 44.35824322 -141.23144531 78.0078125 Z " fill="#0A283E" transform="translate(508.8125,236.6875)"/>
<path d="M0 0 C0.99 0.66 1.98 1.32 3 2 C3.41650391 4.12304688 3.41650391 4.12304688 3.4765625 6.71875 C3.5075 7.65074219 3.5384375 8.58273437 3.5703125 9.54296875 C3.58835937 10.51878906 3.60640625 11.49460937 3.625 12.5 C3.67591642 14.42718666 3.73042726 16.35428274 3.7890625 18.28125 C3.80662598 19.13783203 3.82418945 19.99441406 3.84228516 20.87695312 C3.86893046 23.0542967 3.86893046 23.0542967 5 25 C5.15344209 26.88472859 5.24959571 28.77427874 5.31640625 30.6640625 C5.35830078 31.78554688 5.40019531 32.90703125 5.44335938 34.0625 C5.48267578 35.238125 5.52199219 36.41375 5.5625 37.625 C5.60568359 38.80835938 5.64886719 39.99171875 5.69335938 41.2109375 C5.79967426 44.14050328 5.90170642 47.07015588 6 50 C6.92039062 49.67386719 7.84078125 49.34773438 8.7890625 49.01171875 C47.78012143 35.4430589 93.03489434 35.59670271 130.66796875 53.328125 C134 55 134 55 135 56 C135.08861992 58.8116338 135.11522355 61.59858255 135.09765625 64.41015625 C135.09553383 65.67320839 135.09553383 65.67320839 135.09336853 66.96177673 C135.08775263 69.66205335 135.07519748 72.36224828 135.0625 75.0625 C135.05748705 76.88867068 135.05292379 78.71484266 135.04882812 80.54101562 C135.03777804 85.02737542 135.02050279 89.51367384 135 94 C133.91332031 93.29641357 133.91332031 93.29641357 132.8046875 92.57861328 C113.54462037 80.19760013 93.98015249 74.79647141 71.1875 74.8125 C69.99930664 74.81330566 68.81111328 74.81411133 67.58691406 74.81494141 C60.43587616 74.864106 53.36275429 75.12367803 46.25 75.875 C45.5077417 75.95339111 44.7654834 76.03178223 44.00073242 76.11254883 C39.4106703 76.66645775 35.52350664 77.70756953 31 79 C31 84.28 31 89.56 31 95 C35.72660311 93.77945898 35.72660311 93.77945898 40.45019531 92.54736328 C51.67311259 89.6964038 62.48406652 88.63811739 74.0625 88.6875 C74.74153381 88.68932281 75.42056763 88.69114563 76.12017822 88.69302368 C97.03483118 88.78725042 115.83913717 92.48406096 135 101 C135 112.55 135 124.1 135 136 C130.23691809 136 128.68430176 134.80646742 124.6875 132.3125 C107.89221775 122.29018683 89.13208533 119.42892134 69.875 119.625 C69.11762543 119.62765869 68.36025085 119.63031738 67.57992554 119.63305664 C55.19510109 119.68394045 43.17696171 120.62400747 31 123 C31.495 130.92 31.495 130.92 32 139 C33.381875 138.54625 34.76375 138.0925 36.1875 137.625 C48.08507587 134.11533888 59.88331909 133.65325906 72.19165039 133.68432617 C74.79811639 133.68748258 77.40343918 133.66395219 80.00976562 133.63867188 C100.00134851 133.56354535 117.30036318 137.34565264 135 147 C135 159.54 135 172.08 135 185 C128 181 128 181 124.9375 178.625 C109.02376158 167.05460853 87.34975373 163.62308272 68.19189453 163.68432617 C66.13390006 163.68748633 64.0773496 163.66392268 62.01953125 163.63867188 C54.03309037 163.60253359 46.74856095 164.40186539 38.98388672 166.35473633 C36 167 36 167 31 167 C31 172.61 31 178.22 31 184 C33.02125 183.38125 35.0425 182.7625 37.125 182.125 C68.91966377 172.96570818 105.55974767 177.27987383 135 192 C135 203.88 135 215.76 135 228 C130.24570537 227.04914107 126.63502032 225.45485661 122.375 223.3125 C84.55999812 204.93147409 44.72729629 208.06817593 5 218 C4.67 165.2 4.34 112.4 4 58 C-2.6 59.32 -9.2 60.64 -16 62 C-16 133.61 -16 205.22 -16 279 C-1.15 279 13.7 279 29 279 C37.35579896 281.28255972 43.66517258 283.11044775 51 287 C52.37780767 287.64983647 53.75927255 288.29198337 55.14453125 288.92578125 C58.46270718 290.47482766 61.69816341 292.14094339 64.92041016 293.87988281 C67.19116514 295.10296615 69.47630419 296.29673988 71.76171875 297.4921875 C82.93649199 303.41240957 93.39211207 310.05714901 103.70068359 317.37255859 C105.98424409 318.98884807 108.28088583 320.58465285 110.58203125 322.17578125 C117.69761914 327.11404905 124.62667805 332.14869824 131.26171875 337.7265625 C133.86337383 339.88656715 136.51115939 341.96531747 139.18554688 344.03344727 C145.15668354 348.65400795 150.82160354 353.46440899 156.359375 358.60546875 C159.8455263 361.76672725 163.5032748 364.68745063 167.171875 367.6328125 C169.75265835 369.79297094 172.19654768 372.03211066 174.63793945 374.34472656 C179.42783486 378.88180726 183.81421215 382.50189337 190 385 C190 385.33 190 385.66 190 386 C139.71448981 395.01069836 81.95374475 376.86262445 40.70068359 348.18115234 C34.13475494 343.49920221 28.03187814 338.34389204 22 333 C21.15179688 332.26265625 20.30359375 331.5253125 19.4296875 330.765625 C8.6879644 321.30185609 -1.14030491 311.24959357 -10 300 C-10.61746094 299.28457031 -11.23492187 298.56914063 -11.87109375 297.83203125 C-29.79610883 276.77666011 -42.87292028 249.57898582 -50 223 C-50.24387451 222.15026611 -50.48774902 221.30053223 -50.73901367 220.42504883 C-52.59271435 213.89563898 -53.971307 207.38472495 -55.0625 200.6875 C-55.23168945 199.65133545 -55.40087891 198.6151709 -55.57519531 197.54760742 C-63.41519735 147.86782572 -57.85363812 96.22896652 -35 51 C-34.62149902 50.24847656 -34.24299805 49.49695313 -33.85302734 48.72265625 C-27.7142263 36.73082146 -20.24563129 25.78968234 -12.35351562 14.89086914 C-11.20294374 13.28351358 -10.09648495 11.64472743 -9 10 C-8.34 10 -7.68 10 -7 10 C-6.773125 9.46375 -6.54625 8.9275 -6.3125 8.375 C-4.56617944 5.21499137 -2.3597151 2.7323017 0 0 Z " fill="#CDEFF5" transform="translate(341,339)"/>
<path d="M0 0 C13.36686391 2.22781065 13.36686391 2.22781065 20 4.125 C23.9404384 5.24966679 26.88698078 6 31 6 C35.37302933 21.5290741 38.75889069 37.01879241 41 53 C41.1045752 53.72243896 41.20915039 54.44487793 41.31689453 55.18920898 C44.67091515 81.13636848 42.59801274 110.77195491 36 136 C35.77328613 136.87011719 35.54657227 137.74023438 35.31298828 138.63671875 C31.60387083 152.58840223 27.08766866 165.90884495 21 179 C20.68450195 179.68465332 20.36900391 180.36930664 20.04394531 181.07470703 C10.44538148 201.67929249 -1.99731255 219.79837376 -17.52734375 236.33984375 C-19.52921897 238.49351994 -21.43187709 240.67980983 -23.3125 242.9375 C-56.31496521 280.82338488 -110.14008596 306.11828857 -160 310 C-171.23658621 310.44467464 -177.36699507 302.75100731 -185.14453125 295.57421875 C-188.74473369 292.32861901 -192.49984002 289.30576269 -196.2734375 286.265625 C-198.98434861 284.01300545 -201.55277501 281.65903247 -204.125 279.25 C-210.10025151 273.74625327 -216.52588133 268.90583979 -223.01171875 264.0234375 C-226.02817851 261.75148056 -228.96891756 259.41240469 -231.875 257 C-238.80308432 251.40560142 -246.28261172 246.54352458 -253.66503906 241.57666016 C-255.76187994 240.16078831 -257.8477178 238.73057044 -259.9296875 237.29296875 C-269.27662033 230.88094298 -278.99392063 225.31628507 -289 220 C-289.67675781 219.63632324 -290.35351562 219.27264648 -291.05078125 218.89794922 C-301.67882335 213.21970286 -312.6275386 208.95563875 -324 205 C-324 204.67 -324 204.34 -324 204 C-293.64 204 -263.28 204 -232 204 C-231.67 220.17 -231.34 236.34 -231 253 C-228.03 250.36 -225.06 247.72 -222 245 C-220.16075316 243.48174274 -218.31007243 241.97695854 -216.4375 240.5 C-215.59058594 239.8296875 -214.74367188 239.159375 -213.87109375 238.46875 C-213.25363281 237.9840625 -212.63617188 237.499375 -212 237 C-207.545 239.475 -207.545 239.475 -203 242 C-202.505 223.19 -202.505 223.19 -202 204 C-191.77 204 -181.54 204 -171 204 C-171 216.54 -171 229.08 -171 242 C-167.7 240.02 -164.4 238.04 -161 236 C-159.69675781 237.12148438 -159.69675781 237.12148438 -158.3671875 238.265625 C-157.20327021 239.26058656 -156.03919951 240.25536868 -154.875 241.25 C-154.30523438 241.74113281 -153.73546875 242.23226562 -153.1484375 242.73828125 C-152.58125 243.22167969 -152.0140625 243.70507812 -151.4296875 244.203125 C-150.91647949 244.64301758 -150.40327148 245.08291016 -149.87451172 245.53613281 C-147.35652922 247.50250727 -144.65824956 249.22783363 -142 251 C-141.505 227.735 -141.505 227.735 -141 204 C-94.47 204 -47.94 204 0 204 C0 136.68 0 69.36 0 0 Z " fill="#62A0AE" transform="translate(697,415)"/>
<path d="M0 0 C1 1 1 1 1.11352539 4.60180664 C1.11336625 6.20459856 1.10767063 7.8073956 1.09765625 9.41015625 C1.09553383 10.67320839 1.09553383 10.67320839 1.09336853 11.96177673 C1.08775263 14.66205335 1.07519748 17.36224828 1.0625 20.0625 C1.05748705 21.88867068 1.05292379 23.71484266 1.04882812 25.54101562 C1.03777804 30.02737542 1.02050279 34.51367384 1 39 C0.27554688 38.53094238 -0.44890625 38.06188477 -1.1953125 37.57861328 C-20.45537963 25.19760013 -40.01984751 19.79647141 -62.8125 19.8125 C-64.00069336 19.81330566 -65.18888672 19.81411133 -66.41308594 19.81494141 C-73.56412384 19.864106 -80.63724571 20.12367803 -87.75 20.875 C-88.86338745 20.99258667 -88.86338745 20.99258667 -89.99926758 21.11254883 C-94.5893297 21.66645775 -98.47649336 22.70756953 -103 24 C-103 29.28 -103 34.56 -103 40 C-98.27339689 38.77945898 -98.27339689 38.77945898 -93.54980469 37.54736328 C-82.32688741 34.6964038 -71.51593348 33.63811739 -59.9375 33.6875 C-59.25846619 33.68932281 -58.57943237 33.69114563 -57.87982178 33.69302368 C-36.96516882 33.78725042 -18.16086283 37.48406096 1 46 C1 57.55 1 69.1 1 81 C-3.76308191 81 -5.31569824 79.80646742 -9.3125 77.3125 C-26.10778225 67.29018683 -44.86791467 64.42892134 -64.125 64.625 C-64.88237457 64.62765869 -65.63974915 64.63031738 -66.42007446 64.63305664 C-78.80489891 64.68394045 -90.82303829 65.62400747 -103 68 C-102.505 75.92 -102.505 75.92 -102 84 C-100.618125 83.54625 -99.23625 83.0925 -97.8125 82.625 C-85.91492413 79.11533888 -74.11668091 78.65325906 -61.80834961 78.68432617 C-59.20188361 78.68748258 -56.59656082 78.66395219 -53.99023438 78.63867188 C-33.99865149 78.56354535 -16.69963682 82.34565264 1 92 C1 104.54 1 117.08 1 130 C-6 126 -6 126 -9.0625 123.625 C-24.97623842 112.05460853 -46.65024627 108.62308272 -65.80810547 108.68432617 C-67.86609994 108.68748633 -69.9226504 108.66392268 -71.98046875 108.63867188 C-79.96690963 108.60253359 -87.25143905 109.40186539 -95.01611328 111.35473633 C-98 112 -98 112 -103 112 C-103 117.61 -103 123.22 -103 129 C-99.968125 128.071875 -99.968125 128.071875 -96.875 127.125 C-65.08033623 117.96570818 -28.44025233 122.27987383 1 137 C1 148.88 1 160.76 1 173 C-3.75429463 172.04914107 -7.36497968 170.45485661 -11.625 168.3125 C-46.25795536 151.47819567 -84.61511246 151.83646904 -121.35058594 161.07910156 C-122.08840302 161.26417267 -122.82622009 161.44924377 -123.58639526 161.6399231 C-125.39107832 162.09269198 -127.19555986 162.54626398 -129 163 C-129.16352042 141.72081201 -129.28696046 120.44172761 -129.3626852 99.1620388 C-129.39878015 89.28147759 -129.44799016 79.40130675 -129.52807617 69.52099609 C-129.59784595 60.90930663 -129.64300739 52.29789986 -129.65861946 43.68593562 C-129.66774573 39.12577165 -129.68919257 34.56641643 -129.7401104 30.00651169 C-129.78765879 25.71353449 -129.80227435 21.42169833 -129.79175377 17.12848282 C-129.79367806 15.55385891 -129.80758382 13.97919649 -129.83443832 12.40480042 C-130.02671337 0.54985548 -130.02671337 0.54985548 -127.50877571 -3.25104904 C-123.83852011 -6.52611269 -119.89785159 -8.0594928 -115.125 -9.25 C-113.8978125 -9.56195313 -112.670625 -9.87390625 -111.40625 -10.1953125 C-109.72015625 -10.59363281 -109.72015625 -10.59363281 -108 -11 C-107.2265625 -11.20367187 -106.453125 -11.40734375 -105.65625 -11.6171875 C-71.15433946 -20.24266513 -31.62544346 -15.86833505 0 0 Z " fill="#FBFCFC" transform="translate(475,394)"/>
<path d="M0 0 C9.46589019 4.73294509 16.24557115 11.4911423 21 21 C21.0945492 23.21714783 21.12189834 25.43724028 21.12025452 27.65640259 C21.12110894 28.34823179 21.12196337 29.04006099 21.12284368 29.7528547 C21.12449709 32.08216997 21.11897939 34.41141398 21.11352539 36.74072266 C21.11324346 38.4060211 21.11340136 40.07131967 21.1139679 41.73661804 C21.11425565 46.26735767 21.10836243 50.798071 21.10139394 55.32880449 C21.09515679 60.06005248 21.09455631 64.79130102 21.09336853 69.52255249 C21.09025628 78.48627304 21.08204432 87.44998145 21.07201904 96.41369665 C21.0608546 106.61669114 21.05534662 116.81968621 21.05032361 127.02268529 C21.03986163 148.01513032 21.02226424 169.00756439 21 190 C20.29274277 189.39232285 20.29274277 189.39232285 19.57119751 188.77236938 C18.94780487 188.23727753 18.32441223 187.70218567 17.68212891 187.15087891 C16.75830917 186.35757675 16.75830917 186.35757675 15.81582642 185.54824829 C13.36278939 183.45668802 10.87313749 181.4123859 8.375 179.375 C7.47523438 178.64023437 6.57546875 177.90546875 5.6484375 177.1484375 C3.10792113 175.08754664 0.55715929 173.04018846 -2 171 C-1.34 171 -0.68 171 0 171 C0 159.12 0 147.24 0 135 C-1.98 134.34 -3.96 133.68 -6 133 C-7.36767516 132.53398082 -8.73490992 132.06666579 -10.1015625 131.59765625 C-37.8875905 122.12946156 -65.04055901 118.94215775 -94 125 C-95.09828125 125.21269531 -96.1965625 125.42539062 -97.328125 125.64453125 C-99.55592339 126.07702284 -101.77890876 126.53428732 -104 127 C-104 121.39 -104 115.78 -104 110 C-74.51692037 102.13784543 -40.33648318 103.13192546 -13.375 118.5625 C-9.07919343 121.18911487 -5.11927674 124.05765947 -1 127 C-1 114.79 -1 102.58 -1 90 C-11.69012191 84.634467 -11.69012191 84.634467 -22.75 81.1875 C-23.53503906 80.98447266 -24.32007813 80.78144531 -25.12890625 80.57226562 C-33.04240225 78.58404897 -40.76324388 77.84136014 -48.8984375 77.796875 C-49.73226959 77.79117493 -50.56610168 77.78547485 -51.42520142 77.77960205 C-53.1849849 77.77020604 -54.94478554 77.76363971 -56.70458984 77.75976562 C-59.33334135 77.75015234 -61.96127813 77.7191159 -64.58984375 77.6875 C-78.13721133 77.60278317 -91.07700616 78.69233539 -104 83 C-104 77.39 -104 71.78 -104 66 C-74.50294264 58.93299667 -37.78806559 57.59483765 -10.91015625 73.87109375 C-8.98348902 75.10346648 -7.07119927 76.35885151 -5.1796875 77.64453125 C-3.14473144 79.17602748 -3.14473144 79.17602748 -1 79 C-0.67 67.45 -0.34 55.9 0 44 C-33.12658652 32.95780449 -64.36245266 28.88087842 -98.85644531 37.54101562 C-101 38 -101 38 -104 38 C-104.33 32.72 -104.66 27.44 -105 22 C-99.50515465 19.74902519 -94.58826959 18.37358436 -88.6875 17.8125 C-87.88844238 17.73427002 -87.08938477 17.65604004 -86.26611328 17.57543945 C-56.45404543 14.99884509 -25.31378824 16.54896941 -1 36 C-0.67 24.12 -0.34 12.24 0 0 Z " fill="#B4DBE5" transform="translate(476,396)"/>
<path d="M0 0 C0.94963623 0.01309204 1.89927246 0.02618408 2.87768555 0.03967285 C14.92403212 0.21292826 26.96160098 0.53050119 39 1 C40.21731812 1.04737305 40.21731812 1.04737305 41.45922852 1.09570312 C119.66829564 4.19279129 119.66829564 4.19279129 147 13 C146.9375 15.3125 146.9375 15.3125 146 18 C134.95188966 23.56242342 121.51120536 24.52759619 109.390625 26.078125 C108.72903633 26.16293373 108.06744766 26.24774246 107.38581085 26.33512115 C92.8745936 28.17417963 78.36355769 29.13221055 63.75 29.75 C62.38277411 29.81080747 61.01555623 29.8717955 59.64834595 29.93295288 C34.14560907 31.05462102 8.64065013 31.29210188 -16.88414001 31.31007385 C-19.74938656 31.31244771 -22.61461661 31.31775202 -25.4798584 31.32336426 C-60.38878648 31.37343108 -95.44021176 30.71282661 -130.20483398 27.30493164 C-132.79364403 27.05213507 -135.38380733 26.81930992 -137.97460938 26.58789062 C-146.32587251 25.81878063 -154.6163713 24.84874122 -162.89453125 23.49609375 C-163.62467941 23.3778273 -164.35482758 23.25956085 -165.10710144 23.13771057 C-170.61925342 22.18887072 -176.17283853 20.9307766 -181 18 C-181.66 17.01 -182.32 16.02 -183 15 C-176.00298368 6.76821609 -157.17234371 7.26107506 -147 6 C-145.55488037 5.814375 -145.55488037 5.814375 -144.08056641 5.625 C-96.42938788 -0.33430713 -47.94387967 -0.67818231 0 0 Z " fill="#A1DBE2" transform="translate(529,784)"/>
<path d="M0 0 C0.66 0.33 1.32 0.66 2 1 C1.67 1.99 1.34 2.98 1 4 C0.91492921 6.7315956 0.88408435 9.43691443 0.90234375 12.16796875 C0.90446617 13.36018791 0.90446617 13.36018791 0.90663147 14.57649231 C0.91222622 17.11353325 0.92477772 19.65048575 0.9375 22.1875 C0.94251568 23.90820185 0.94707847 25.62890508 0.95117188 27.34960938 C0.96219393 31.5664403 0.97945494 35.78320516 1 40 C1.56920166 39.40034424 2.13840332 38.80068848 2.72485352 38.18286133 C17.42650093 23.03055346 39.15740015 14.89579461 60.20947266 13.83886719 C64.01475875 13.79261212 67.81945218 13.75484095 71.625 13.75 C72.6576297 13.74749237 72.6576297 13.74749237 73.71112061 13.74493408 C86.96006755 13.74300775 100.56312709 14.02525084 113 19 C113 24.61 113 30.22 113 36 C111.453125 35.566875 109.90625 35.13375 108.3125 34.6875 C74.81083429 26.48779161 34.33175925 25.85911893 3.82128906 44.03369141 C2 45 2 45 0 45 C0.33 57.21 0.66 69.42 1 82 C3.95066454 82 4.98026889 80.42254636 7.1875 78.5 C26.24938232 63.04811548 49.10457153 58.58199675 73.125 58.6875 C73.89603058 58.68799347 74.66706116 58.68848694 75.4614563 58.68899536 C88.39207405 58.71435841 100.43096672 59.85774168 113 63 C113 68.61 113 74.22 113 80 C111.74445313 79.72285156 110.48890625 79.44570313 109.1953125 79.16015625 C107.50527118 78.79398063 105.8151634 78.42811169 104.125 78.0625 C103.30257812 77.88009766 102.48015625 77.69769531 101.6328125 77.50976562 C90.68976917 75.15872116 79.90334048 74.78745143 68.74365234 74.75976562 C66.40034866 74.75010451 64.05794122 74.71901045 61.71484375 74.6875 C51.46908774 74.61550298 41.97969339 75.69937655 32 78 C31.13117187 78.19883789 30.26234375 78.39767578 29.3671875 78.60253906 C27.33023921 79.10269882 25.32263609 79.6518809 23.3125 80.25 C22.61898437 80.45471924 21.92546875 80.65943848 21.2109375 80.87036133 C14.35954662 83.00984956 7.99382781 86.03408393 2 90 C0.33422375 93.33155251 0.87992144 97.06536059 0.90234375 100.7265625 C0.90446617 102.02078629 0.90446617 102.02078629 0.90663147 103.34115601 C0.91223812 106.1024723 0.92479173 108.86370812 0.9375 111.625 C0.94251414 113.4947905 0.9470772 115.36458226 0.95117188 117.234375 C0.96220971 121.82294777 0.9794788 126.41146023 1 131 C1.42555176 130.55269531 1.85110352 130.10539063 2.28955078 129.64453125 C20.43247438 110.97925861 45.16082266 103.09561466 70.73168945 102.58154297 C85.08046224 102.50903216 99.04988916 103.51247229 113 107 C113 112.61 113 118.22 113 124 C106.4164167 123.43244972 100.15661381 122.22376931 93.72265625 120.71875 C78.06732837 117.69610537 60.55140984 117.51331448 45 121 C43.53064348 121.27458192 42.06051494 121.54504896 40.58984375 121.8125 C28.90093659 124.00689687 18.3401213 127.24722149 7.70703125 132.68359375 C5 134 5 134 3 134 C1.10102313 138.73183163 0.85244363 142.73151046 1.15625 147.7421875 C1.21076688 149.23559023 1.26277239 150.72908637 1.3125 152.22265625 C1.39885994 154.55093983 1.49995427 156.87426448 1.64453125 159.19970703 C2.41696002 172.21789041 2.41696002 172.21789041 -1.15625 176.71191406 C-3.84375 178.8203125 -3.84375 178.8203125 -6.53710938 180.46142578 C-9.08656703 182.05407865 -10.2631296 183.59845768 -12 186 C-12.66 186 -13.32 186 -14 186 C-14.1402706 164.12066752 -14.24602034 142.24140937 -14.31087303 120.36171818 C-14.34178805 110.20217403 -14.38392356 100.04290955 -14.45263672 89.88354492 C-14.51251081 81.02681664 -14.55116626 72.17029093 -14.56453097 63.31336588 C-14.5723412 58.62521591 -14.59064759 53.9376454 -14.63438034 49.24968147 C-14.67524817 44.83284387 -14.68764065 40.41682181 -14.67864609 35.99981308 C-14.68029043 34.3829282 -14.6921414 32.76601472 -14.71523285 31.1492939 C-14.83993437 21.96430945 -14.48327909 15.02823302 -8 8 C-7.22914063 7.13246094 -6.45828125 6.26492188 -5.6640625 5.37109375 C-4.99117187 4.73300781 -4.31828125 4.09492188 -3.625 3.4375 C-2.93664062 2.77621094 -2.24828125 2.11492187 -1.5390625 1.43359375 C-1.03117188 0.96050781 -0.52328125 0.48742187 0 0 Z " fill="#CBE8ED" transform="translate(538,399)"/>
<path d="M0 0 C0.71089783 -0.00626404 1.42179565 -0.01252808 2.15423584 -0.01898193 C16.35694081 -0.09809308 29.68228824 2.04942336 43.1875 6.5625 C44.01314453 6.82675781 44.83878906 7.09101562 45.68945312 7.36328125 C51.59350198 9.28100198 51.59350198 9.28100198 52.75 10.4375 C52.82258946 12.62389453 52.83373783 14.81250389 52.8125 17 C52.80347656 18.19753906 52.79445313 19.39507813 52.78515625 20.62890625 C52.77355469 21.55574219 52.76195312 22.48257813 52.75 23.4375 C52.17781738 23.32680176 51.60563477 23.21610352 51.01611328 23.10205078 C48.30373679 22.58166871 45.58941636 22.07213077 42.875 21.5625 C41.97652344 21.38847656 41.07804688 21.21445312 40.15234375 21.03515625 C23.52976796 17.939918 7.26549086 17.11323766 -9.61621094 17.17675781 C-12.98130492 17.18744065 -16.34585999 17.17682016 -19.7109375 17.1640625 C-37.24089183 17.15299855 -55.07252891 17.57462373 -72.25 21.4375 C-57.31201826 3.50081561 -21.14254615 0.08711557 0 0 Z " fill="#72A0AC" transform="translate(622.25,571.5625)"/>
<path d="M0 0 C0.71417084 0.00370605 1.42834167 0.00741211 2.16415405 0.01123047 C28.80162595 0.20686266 50.44787377 8.16780801 73.8125 20.4375 C70.52552016 21.53315995 69.48538918 21.33460773 66.1875 20.625 C49.81217498 17.45837903 33.7454554 17.09412934 17.10375977 17.12182617 C13.15027094 17.12497984 9.1975372 17.10147479 5.24414062 17.07617188 C-9.82803291 17.03930949 -24.33104671 17.89094275 -39.1875 20.4375 C-40.51936301 20.65243147 -41.85145995 20.86592077 -43.18383789 21.07763672 C-45.85513102 21.51040203 -48.52219438 21.96927063 -51.1875 22.4375 C-51.1875 18.1475 -51.1875 13.8575 -51.1875 9.4375 C-48.35795884 8.48714324 -45.52456927 7.55241909 -42.6875 6.625 C-41.52927734 6.23344727 -41.52927734 6.23344727 -40.34765625 5.83398438 C-27.02990564 1.51903318 -13.93167063 -0.13097715 0 0 Z " fill="#70A2AD" transform="translate(398.1875,571.5625)"/>
<path d="M0 0 C0.67593201 0.00082581 1.35186401 0.00165161 2.04827881 0.00250244 C15.19163186 0.0393468 28.7319762 0.38029048 41.0625 5.3125 C41.0625 10.9225 41.0625 16.5325 41.0625 22.3125 C39.515625 21.879375 37.96875 21.44625 36.375 21 C-1.6455516 11.69427059 -41.880347 14.17117295 -75.9375 34.3125 C-70.03550259 20.87077814 -55.93053935 12.40308679 -42.92675781 7.06738281 C-37.40646007 4.97254228 -31.70420002 3.55410582 -25.9375 2.3125 C-24.76175415 2.04651001 -24.76175415 2.04651001 -23.56225586 1.77514648 C-15.70145725 0.14434467 -8.00985567 -0.03258849 0 0 Z " fill="#0F273B" transform="translate(609.9375,412.6875)"/>
<path d="M0 0 C0 5.61 0 11.22 0 17 C-6.5835833 16.43244972 -12.84338619 15.22376931 -19.27734375 13.71875 C-34.93267163 10.69610537 -52.44859016 10.51331448 -68 14 C-69.46935652 14.27458192 -70.93948506 14.54504896 -72.41015625 14.8125 C-86.33695606 17.42412637 -98.54827059 21.64215989 -110.828125 28.8984375 C-113 30 -113 30 -116 30 C-102.19902082 10.98052557 -81.78679473 0.67707662 -58.84375 -3.2734375 C-39.49264631 -6.04269363 -18.94615912 -4.73653978 0 0 Z " fill="#0F293D" transform="translate(651,506)"/>
<path d="M0 0 C0.77103058 0.00049347 1.54206116 0.00098694 2.3364563 0.00149536 C15.26707405 0.02685841 27.30596672 1.17024168 39.875 4.3125 C39.875 9.9225 39.875 15.5325 39.875 21.3125 C38.61945313 21.03535156 37.36390625 20.75820313 36.0703125 20.47265625 C34.38027118 20.10648063 32.6901634 19.74061169 31 19.375 C30.17757812 19.19259766 29.35515625 19.01019531 28.5078125 18.82226562 C17.56476917 16.47122116 6.77834048 16.09995143 -4.38134766 16.07226562 C-6.72465134 16.06260451 -9.06705878 16.03151045 -11.41015625 16 C-21.65687152 15.9280646 -31.14345093 17.01829671 -41.125 19.3125 C-41.98319336 19.50602051 -42.84138672 19.69954102 -43.72558594 19.89892578 C-53.29352917 22.20521232 -61.63721064 25.75829837 -70.1484375 30.640625 C-73.125 32.3125 -73.125 32.3125 -76.125 33.3125 C-72.75402581 22.18828516 -61.52224065 15.75892762 -51.84765625 10.546875 C-35.01394448 2.46669335 -18.47420841 -0.08114298 0 0 Z " fill="#0E293E" transform="translate(611.125,457.6875)"/>
<path d="M0 0 C4.41620123 3.97842597 7.57055172 7.38639454 9.97338867 12.87744141 C6.51520799 11.54282034 3.16828063 10.03446505 -0.18920898 8.46606445 C-6.87071437 5.39795841 -13.54061975 2.94436794 -20.65161133 1.06494141 C-21.37751465 0.87053467 -22.10341797 0.67612793 -22.85131836 0.47583008 C-34.70345241 -2.49700399 -46.64658653 -3.53515683 -58.83911133 -3.56005859 C-59.82868835 -3.56465088 -59.82868835 -3.56465088 -60.83825684 -3.56933594 C-73.53989893 -3.58458858 -85.56713266 -1.67360577 -97.88305664 1.41845703 C-100.02661133 1.87744141 -100.02661133 1.87744141 -103.02661133 1.87744141 C-103.35661133 -3.40255859 -103.68661133 -8.68255859 -104.02661133 -14.12255859 C-98.53176597 -16.3735334 -93.61488092 -17.74897423 -87.71411133 -18.31005859 C-86.91505371 -18.38828857 -86.11599609 -18.46651855 -85.29272461 -18.54711914 C-56.3121684 -21.0518477 -23.18021074 -20.14808466 0 0 Z " fill="#10253A" transform="translate(475.026611328125,432.12255859375)"/>
<path d="M0 0 C4.65438685 3.83479369 8.2420699 8.19643774 11.6875 13.125 C10.6975 13.62 10.6975 13.62 9.6875 14.125 C8.2252666 13.35427669 6.7690628 12.56950126 5.34912109 11.72338867 C-23.02805492 -5.13281874 -59.60471753 -7.50775042 -91.3125 -0.875 C-92.95992188 -0.55595703 -92.95992188 -0.55595703 -94.640625 -0.23046875 C-96.86842339 0.20202284 -99.09140876 0.65928732 -101.3125 1.125 C-101.3125 -4.485 -101.3125 -10.095 -101.3125 -15.875 C-67.14207308 -24.98711384 -28.78317591 -21.78186285 0 0 Z " fill="#0F273E" transform="translate(473.3125,521.875)"/>
<path d="M0 0 C5.52609682 4.84880362 9.94152501 9.24586774 13 16 C9.36608581 14.64427048 5.9677173 12.97977457 2.53320312 11.18237305 C-15.54421434 1.78116086 -34.10436861 -1.541284 -54.30810547 -1.39111328 C-56.86610566 -1.37505583 -59.42251646 -1.39104877 -61.98046875 -1.41015625 C-75.35129195 -1.42715646 -88.25346245 -0.24884585 -101 4 C-101 -1.61 -101 -7.22 -101 -13 C-68.25295471 -20.84564627 -28.0701399 -21.19581992 0 0 Z " fill="#0F2639" transform="translate(473,475)"/>
<path d="M0 0 C0.71417084 0.00370605 1.42834167 0.00741211 2.16415405 0.01123047 C28.80162595 0.20686266 50.44787377 8.16780801 73.8125 20.4375 C70.26091256 21.62136248 69.46343801 21.19349855 66.04296875 19.92578125 C65.08197266 19.58168213 64.12097656 19.23758301 63.13085938 18.88305664 C62.09767578 18.50914795 61.06449219 18.13523926 60 17.75 C48.41454329 13.70931729 36.93924945 11.18102045 24.8125 9.4375 C23.57886719 9.24414062 22.34523438 9.05078125 21.07421875 8.8515625 C14.95495742 8.1190613 8.77810904 8.25315382 2.625 8.25 C0.7677832 8.23163086 0.7677832 8.23163086 -1.12695312 8.21289062 C-13.22630404 8.19387645 -24.49689089 10.0835596 -36.1875 13.0625 C-37.97780537 13.51840037 -39.76944264 13.96910883 -41.5625 14.4140625 C-42.33335937 14.61080566 -43.10421875 14.80754883 -43.8984375 15.01025391 C-46.37398566 15.47230694 -48.67483129 15.51019426 -51.1875 15.4375 C-51.1875 13.4575 -51.1875 11.4775 -51.1875 9.4375 C-48.35795884 8.48714324 -45.52456927 7.55241909 -42.6875 6.625 C-41.52927734 6.23344727 -41.52927734 6.23344727 -40.34765625 5.83398438 C-27.02990564 1.51903318 -13.93167063 -0.13097715 0 0 Z " fill="#F4FAFB" transform="translate(398.1875,571.5625)"/>
<path d="M0 0 C2.14550269 0.01611324 4.28912304 0.00001681 6.43457031 -0.01904297 C19.97608439 -0.04124518 32.72014184 2.21769123 45.58300781 6.51611328 C46.40865234 6.78037109 47.23429688 7.04462891 48.08496094 7.31689453 C53.9890098 9.23461527 53.9890098 9.23461527 55.14550781 10.39111328 C55.18631564 12.39069692 55.18805138 14.39156582 55.14550781 16.39111328 C54.00855469 16.13716797 52.87160156 15.88322266 51.70019531 15.62158203 C47.64630967 14.71714176 43.5911767 13.8184121 39.53564453 12.92138672 C37.40603306 12.44891316 35.27762612 11.97140137 33.14941406 11.49267578 C31.9725 11.23228516 30.79558594 10.97189453 29.58300781 10.70361328 C28.55046875 10.47287109 27.51792969 10.24212891 26.45410156 10.00439453 C-0.06723086 5.08839785 -28.46611275 8.30783102 -54.15966797 15.90356445 C-59.56826279 17.48652308 -59.56826279 17.48652308 -62.85449219 16.39111328 C-55.42344953 12.35302258 -47.99092366 8.86062215 -39.97949219 6.14111328 C-39.31062988 5.90763184 -38.64176758 5.67415039 -37.95263672 5.43359375 C-25.51989439 1.370663 -13.01619356 -0.11563361 0 0 Z " fill="#F4F9FA" transform="translate(619.8544921875,571.60888671875)"/>
<path d="M0 0 C0 0.99 0 1.98 0 3 C-1.97956942 4.69088222 -3.97945196 6.35830472 -6 8 C-6 8.66 -6 9.32 -6 10 C-5.01 10.66 -4.02 11.32 -3 12 C-5.4581652 13.31281572 -7.91652422 14.62526612 -10.375 15.9375 C-11.42300781 16.49727539 -11.42300781 16.49727539 -12.4921875 17.06835938 C-17.7734375 19.88671875 -17.7734375 19.88671875 -20 21 C-16.09930726 12.11622333 -7.71524805 5.50828584 0 0 Z " fill="#163248" transform="translate(554,426)"/>
<path d="M0 0 C8.88240886 2.5378311 16.82618207 6.77769651 25 11 C21.29907903 12.23364032 20.09701028 11.59950089 16.45703125 10.34765625 C15.38388672 9.98349609 14.31074219 9.61933594 13.20507812 9.24414062 C12.08552734 8.85419922 10.96597656 8.46425781 9.8125 8.0625 C8.68134766 7.67642578 7.55019531 7.29035156 6.38476562 6.89257812 C3.58699091 5.93637664 0.79235241 4.9718993 -2 4 C-1.34 2.68 -0.68 1.36 0 0 Z " fill="#EEF8FA" transform="translate(447,581)"/>
<path d="M0 0 C16.83 0 33.66 0 51 0 C51 0.33 51 0.66 51 1 C49.81446533 1.02505615 48.62893066 1.0501123 47.4074707 1.07592773 C42.99981282 1.17025532 38.59230322 1.27041377 34.18481445 1.37231445 C32.27892532 1.41556753 30.37299983 1.45724925 28.46704102 1.49731445 C25.72400979 1.55525071 22.98115987 1.6188774 20.23828125 1.68359375 C19.38913651 1.70030624 18.53999176 1.71701874 17.66511536 1.73423767 C14.38962212 1.81585456 11.34844787 1.92978881 8.12963867 2.57836914 C5.04829749 3.1884203 2.8629442 2.13186166 0 1 C0 0.67 0 0.34 0 0 Z " fill="#74A6B7" transform="translate(373,619)"/>
<path d="M0 0 C0.48339844 0.37511719 0.96679688 0.75023437 1.46484375 1.13671875 C1.13484375 1.79671875 0.80484375 2.45671875 0.46484375 3.13671875 C-1.76000977 3.73095703 -1.76000977 3.73095703 -4.6640625 4.20703125 C-5.69853516 4.38105469 -6.73300781 4.55507813 -7.79882812 4.734375 C-8.88744141 4.90839844 -9.97605469 5.08242188 -11.09765625 5.26171875 C-12.19013672 5.44347656 -13.28261719 5.62523437 -14.40820312 5.8125 C-17.11598475 6.26182621 -19.82486302 6.70284448 -22.53515625 7.13671875 C-19.25840618 3.46698759 -15.70687382 2.65938253 -11.09765625 1.32421875 C-9.95200195 0.96166992 -9.95200195 0.96166992 -8.78320312 0.59179688 C-3.14617416 -1.07134744 -3.14617416 -1.07134744 0 0 Z " fill="#91AFBB" transform="translate(572.53515625,585.86328125)"/>
<path d="M0 0 C3.67056937 1.47797262 5.41085783 3.47615477 7.75 6.625 C8.67039062 7.85089844 8.67039062 7.85089844 9.609375 9.1015625 C10.29773438 10.04128906 10.29773438 10.04128906 11 11 C10.01 11.495 10.01 11.495 9 12 C6.3984375 10.78515625 6.3984375 10.78515625 3.375 9.0625 C2.37210937 8.49660156 1.36921875 7.93070313 0.3359375 7.34765625 C-0.43492187 6.90292969 -1.20578125 6.45820312 -2 6 C-1.34 5.67 -0.68 5.34 0 5 C0 3.35 0 1.7 0 0 Z " fill="#193543" transform="translate(474,524)"/>
<path d="M0 0 C0.99 0.33 1.98 0.66 3 1 C2.67 1.66 2.34 2.32 2 3 C1.84355828 5.55106029 1.74178611 8.07918663 1.68359375 10.6328125 C1.66281265 11.38464813 1.64203156 12.13648376 1.62062073 12.91110229 C1.55517295 15.31564085 1.49626262 17.72028967 1.4375 20.125 C1.39431023 21.75391771 1.35069579 23.38282422 1.30664062 25.01171875 C1.19949649 29.00769915 1.09821567 33.00379059 1 37 C1.66 37 2.32 37 3 37 C2.67 37.99 2.34 38.98 2 40 C0 38 0 38 -0.22705078 34.28466797 C-0.22673351 32.68713948 -0.21539982 31.08958973 -0.1953125 29.4921875 C-0.1924826 28.65156769 -0.18965271 27.81094788 -0.18673706 26.94485474 C-0.1755243 24.25475954 -0.15041803 21.5649949 -0.125 18.875 C-0.1149716 17.05339022 -0.10584551 15.23177523 -0.09765625 13.41015625 C-0.07558142 8.93997642 -0.04104434 4.47004429 0 0 Z " fill="#B4D5DE" transform="translate(476,396)"/>
<path d="M0 0 C0.66 0.33 1.32 0.66 2 1 C-0.23392065 4.5492884 -1.98058354 5.69400167 -6 6.8125 C-6.86625 7.06644531 -7.7325 7.32039062 -8.625 7.58203125 C-11 8 -11 8 -14 7 C-11.71296692 5.80274117 -9.42115138 4.61702982 -7.125 3.4375 C-6.14853516 2.92413086 -6.14853516 2.92413086 -5.15234375 2.40039062 C-3.46470143 1.53917109 -1.73420407 0.76313297 0 0 Z " fill="#ECF3F6" transform="translate(571,581)"/>
<path d="M0 0 C0.33 0 0.66 0 1 0 C1.33 11.88 1.66 23.76 2 36 C0.68 36 -0.64 36 -2 36 C-1.67 35.34 -1.34 34.68 -1 34 C-0.84355828 31.44893971 -0.74178611 28.92081337 -0.68359375 26.3671875 C-0.66281265 25.61535187 -0.64203156 24.86351624 -0.62062073 24.08889771 C-0.55517295 21.68435915 -0.49626262 19.27971033 -0.4375 16.875 C-0.39431023 15.24608229 -0.35069579 13.61717578 -0.30664062 11.98828125 C-0.19949649 7.99230085 -0.09821567 3.99620941 0 0 Z " fill="#C6E2E8" transform="translate(476,441)"/>
<path d="M0 0 C4.66154042 1.49835228 5.86610751 4.88463591 8 9 C4.40608886 7.66511872 1.24509304 6.03977277 -2 4 C-1.34 3.67 -0.68 3.34 0 3 C0 2.01 0 1.02 0 0 Z " fill="#162F3C" transform="translate(477,436)"/>
<path d="M0 0 C2.96404505 2.80804268 5.44499019 5.18315774 7 9 C3.2089881 7.55049545 -0.3874638 5.84827434 -4 4 C-2.68 2.68 -1.36 1.36 0 0 Z " fill="#132F3F" transform="translate(479,482)"/>
<path d="M0 0 C4.9723422 1.49170266 9.41845739 3.60457417 14 6 C9.94087374 7.35304209 8.22850409 6.15216503 4.3125 4.5625 C3.13300781 4.08941406 1.95351563 3.61632812 0.73828125 3.12890625 C-0.16535156 2.75636719 -1.06898438 2.38382813 -2 2 C-1.34 1.34 -0.68 0.68 0 0 Z " fill="#DCEBF0" transform="translate(458,586)"/>
<path d="M0 0 C-0.309375 0.804375 -0.61875 1.60875 -0.9375 2.4375 C-2.18565517 6.62249087 -2.6337696 10.66306101 -3 15 C-3.33 15 -3.66 15 -4 15 C-4 10.38 -4 5.76 -4 1 C-2 0 -2 0 0 0 Z " fill="#173343" transform="translate(329,400)"/>
<path d="M0 0 C0.33 0.99 0.66 1.98 1 3 C0.01 4.485 0.01 4.485 -1 6 C-1 6.66 -1 7.32 -1 8 C-2.65 8.66 -4.3 9.32 -6 10 C-4.6302836 6.00499382 -2.74277578 3.19990508 0 0 Z " fill="#224654" transform="translate(541,481)"/>
<path d="M0 0 C0.33 1.32 0.66 2.64 1 4 C-1.4375 6.75 -1.4375 6.75 -4 9 C-4.99 8.67 -5.98 8.34 -7 8 C-4.69 5.36 -2.38 2.72 0 0 Z " fill="#C3DEE4" transform="translate(341,339)"/>
<path d="M0 0 C0.99 0.33 1.98 0.66 3 1 C1.6875 3.5 1.6875 3.5 0 6 C-0.99 6 -1.98 6 -3 6 C-1.125 1.125 -1.125 1.125 0 0 Z " fill="#5A92A3" transform="translate(674,652)"/>
<path d="M0 0 C3.3 0 6.6 0 10 0 C10.33 0.66 10.66 1.32 11 2 C6.70700357 3.26264601 4.12168689 2.62950412 0 1 C0 0.67 0 0.34 0 0 Z " fill="#80ACBA" transform="translate(373,619)"/>
<path d="M0 0 C0.598125 0.350625 1.19625 0.70125 1.8125 1.0625 C1.4825 1.7225 1.1525 2.3825 0.8125 3.0625 C-1.1675 3.0625 -3.1475 3.0625 -5.1875 3.0625 C-5.1875 2.0725 -5.1875 1.0825 -5.1875 0.0625 C-2.1875 -0.9375 -2.1875 -0.9375 0 0 Z " fill="#87ABB7" transform="translate(572.1875,585.9375)"/>
<path d="M0 0 C1 2 1 2 0.9375 3.9375 C-0.49252493 7.08355485 -2.92626518 7.69202774 -6 9 C-4.47291037 5.56404834 -2.40072955 2.88087546 0 0 Z " fill="#274655" transform="translate(540,438)"/>
<path d="M0 0 C0.66 0.33 1.32 0.66 2 1 C1.01 2.485 1.01 2.485 0 4 C-3.625 4.6875 -3.625 4.6875 -7 5 C-4.88437775 2.67281553 -2.94982021 1.14186589 0 0 Z " fill="#DBE7EC" transform="translate(564,584)"/>
<path d="M0 0 C0.33 0 0.66 0 1 0 C1 2.64 1 5.28 1 8 C1.66 8 2.32 8 3 8 C2.34 9.65 1.68 11.3 1 13 C0.67 13 0.34 13 0 13 C0 8.71 0 4.42 0 0 Z " fill="#D7F2FB" transform="translate(525,572)"/>
<path d="M0 0 C0.33 1.32 0.66 2.64 1 4 C-0.9375 6.25 -0.9375 6.25 -3 8 C-3.66 7.67 -4.32 7.34 -5 7 C-3.35 4.69 -1.7 2.38 0 0 Z " fill="#284656" transform="translate(540,529)"/>
</svg>
