<?xml version="1.0" encoding="UTF-8"?>
<svg version="1.1" xmlns="http://www.w3.org/2000/svg" width="900" height="900">
<path d="M0 0 C297 0 594 0 900 0 C900 297 900 594 900 900 C603 900 306 900 0 900 C0 603 0 306 0 0 Z " fill="#347986" transform="translate(0,0)"/>
<path d="M0 0 C0.95752167 -0.00570007 1.91504333 -0.01140015 2.90158081 -0.01727295 C4.92705192 -0.02668276 6.95253807 -0.03324086 8.97802734 -0.03710938 C11.997364 -0.04669305 15.01598246 -0.07770361 18.03515625 -0.109375 C71.79154504 -0.40304462 124.03347673 20.31171384 163.9296875 56.203125 C164.54086426 56.75258789 165.15204102 57.30205078 165.78173828 57.86816406 C208.25300075 96.29505523 237.78581047 151.33074731 241.04356384 209.22691345 C241.10909176 211.34042252 241.14591525 213.45199768 241.16796875 215.56640625 C241.17771729 216.34776947 241.18746582 217.12913269 241.19750977 217.93417358 C241.3833224 236.72470845 240.7682151 254.73060229 236.9296875 273.203125 C236.74245117 274.10998047 236.55521484 275.01683594 236.36230469 275.95117188 C229.01704565 310.27979184 214.13375677 341.13874718 191.9296875 368.203125 C191.42179687 368.82815918 190.91390625 369.45319336 190.390625 370.09716797 C179.28553848 383.70015663 166.95305901 396.59346495 152.9296875 407.203125 C152.37490723 407.62899902 151.82012695 408.05487305 151.24853516 408.49365234 C142.18872717 415.42926112 132.84749721 421.57098267 122.9296875 427.203125 C122.3428418 427.5444043 121.75599609 427.88568359 121.15136719 428.23730469 C93.04174337 444.52934955 59.57993383 453.23583899 27.13671875 453.40625 C26.23617767 453.41330963 25.3356366 453.42036926 24.4078064 453.42764282 C-34.37824725 453.78393728 -86.57852763 439.24039663 -131.0703125 399.203125 C-131.60527344 398.72456055 -132.14023437 398.24599609 -132.69140625 397.75292969 C-178.14734052 356.99262677 -206.54999004 301.08624778 -209.9453125 239.6875 C-210.78116488 216.38811482 -208.62253675 193.87091767 -203.0703125 171.203125 C-202.78631592 170.04224365 -202.78631592 170.04224365 -202.49658203 168.85791016 C-196.13174514 143.66542016 -184.43228958 118.15698739 -169.0703125 97.203125 C-168.38839844 96.25050781 -167.70648438 95.29789062 -167.00390625 94.31640625 C-154.92547732 77.7868926 -141.23799967 62.80078987 -125.0703125 50.203125 C-123.8148414 49.19563985 -122.5596515 48.18780423 -121.3046875 47.1796875 C-87.59060447 20.40567362 -43.66629692 0.20714236 0 0 Z " fill="#0C273E" transform="translate(433.0703125,207.796875)"/>
<path d="M0 0 C0.89428711 0.20898926 1.78857422 0.41797852 2.70996094 0.63330078 C28.96395714 6.99891737 53.25108919 19.13262559 75 35 C75.64646484 35.46680176 76.29292969 35.93360352 76.95898438 36.41455078 C78.81659932 37.76268337 80.66088068 39.12677392 82.5 40.5 C83.05848633 40.90919678 83.61697266 41.31839355 84.19238281 41.73999023 C85.71875 42.90625 85.71875 42.90625 88 45 C88 45.99 88 46.98 88 48 C88.70898438 48.23074219 89.41796875 48.46148437 90.1484375 48.69921875 C116.1470259 60.5588488 135.34442664 100.95442893 145.1640625 125.96484375 C146.24205463 129.07288647 147 131.69340563 147 135 C137.53109916 134.09819992 128.97844054 132.13532844 120 129 C120 125.37 120 121.74 120 118 C119.071875 117.9175 118.14375 117.835 117.1875 117.75 C113 117 113 117 102 113 C102 159.53 102 206.06 102 254 C93.01973973 252.87746747 93.01973973 252.87746747 89.37890625 252.0625 C88.19264648 251.80339844 88.19264648 251.80339844 86.98242188 251.5390625 C85.37286199 251.18051647 83.7634857 250.82114522 82.15429688 250.4609375 C52.91866226 244.08571368 17.78362394 246.3900708 -8.25 261.94140625 C-10.14595466 263.16340828 -12.0283496 264.40694898 -13.890625 265.6796875 C-16 267 -16 267 -18 267 C-18.12403121 262.81919399 -18.21453601 258.63937498 -18.2746582 254.45727539 C-18.29973147 253.03618709 -18.33379999 251.61522687 -18.37719727 250.19458008 C-18.43817858 248.14632538 -18.46627762 246.09978117 -18.48828125 244.05078125 C-18.51446533 242.82012939 -18.54064941 241.58947754 -18.56762695 240.3215332 C-17.84223005 236.07679131 -16.28640521 234.6846306 -13 232 C9.89839948 218.76981363 41.05285585 216.97020832 66.39453125 222.265625 C70.92780713 223.18897913 75.39246415 223.63432255 80 224 C80 219.05 80 214.1 80 209 C77.29817708 208.77213542 74.59635417 208.54427083 71.89453125 208.31640625 C69 208 69 208 66.77709961 207.49511719 C42.0981824 203.0952188 14.97103298 206.84745721 -5.859375 220.93359375 C-8.83427406 223.19393372 -11.52449823 225.50336482 -14.109375 228.203125 C-16 230 -16 230 -18 230 C-18 218.45 -18 206.9 -18 195 C0.52468187 184.70851007 16.62375917 181.29455464 37.65014648 181.47851562 C40.56383171 181.50000982 43.47505944 181.47856072 46.38867188 181.453125 C58.25251713 181.43808129 68.55431933 182.82519369 80 186 C80 181.05 80 176.1 80 171 C48.83980868 166.03329019 16.32400971 164.30858907 -10.64453125 183.16796875 C-12.59404432 184.6842567 -14.31974436 186.19693498 -16 188 C-16.99 187.67 -17.98 187.34 -19 187 C-19 176.77 -19 166.54 -19 156 C-0.55950339 146.29447547 16.60844816 141.59872304 37.5625 141.6875 C38.87428223 141.69023926 40.18606445 141.69297852 41.53759766 141.69580078 C54.81923794 141.83777187 67.16303161 143.69742424 80 147 C80 142.05 80 137.1 80 132 C77.265625 131.51171875 74.53125 131.0234375 71.796875 130.53515625 C70.20745809 130.23103597 68.62136217 129.89831691 67.05848694 129.47860718 C63.66570178 128.68976985 60.21375401 128.77493142 56.74609375 128.7265625 C55.937061 128.71389847 55.12802826 128.70123444 54.29447937 128.68818665 C18.89191762 128.21370781 18.89191762 128.21370781 -11.73974609 144.62158203 C-12.27293457 145.17056152 -12.80612305 145.71954102 -13.35546875 146.28515625 C-14.22816406 147.18105469 -15.10085938 148.07695312 -16 149 C-16.66 149 -17.32 149 -18 149 C-18.0743839 144.53429551 -18.12871171 140.06892316 -18.16479492 135.6027832 C-18.17984353 134.08481562 -18.20028738 132.56689124 -18.22631836 131.04907227 C-18.26287653 128.86203323 -18.27976523 126.67557104 -18.29296875 124.48828125 C-18.31653442 122.51661987 -18.31653442 122.51661987 -18.34057617 120.50512695 C-17.97869466 116.78073059 -17.25272892 114.9466544 -15 112 C10.97493885 94.34383241 48.99070078 95.10433036 78.62695312 100.21606445 C86.73330709 101.76600688 94.28668849 104.0770609 102 107 C102.33 99.74 102.66 92.48 103 85 C101.44152344 84.80664062 99.88304687 84.61328125 98.27734375 84.4140625 C96.16405824 84.15107586 94.05077724 83.88805306 91.9375 83.625 C90.91849609 83.49867188 89.89949219 83.37234375 88.84960938 83.2421875 C87.29790039 83.04882812 87.29790039 83.04882812 85.71484375 82.8515625 C84.08518677 82.6503479 84.08518677 82.6503479 82.42260742 82.44506836 C80.08881827 82.14158754 77.75816519 81.81320236 75.4309082 81.46313477 C65.99827153 80.0720062 56.82338521 79.63861565 47.3125 79.6875 C46.20155975 79.69023422 46.20155975 79.69023422 45.06817627 79.69302368 C16.19885968 79.81223494 -11.71236399 85.33537487 -33.5625 105.4375 C-35.35287009 107.38355444 -36.7436358 109.47357489 -38.1875 111.6875 C-38.71730469 112.49574219 -39.24710938 113.30398438 -39.79296875 114.13671875 C-40.39044922 115.05904297 -40.39044922 115.05904297 -41 116 C-44.01205446 115.68258619 -44.93962885 115.0668311 -47.0078125 112.77734375 C-47.70648438 111.84019531 -48.40515625 110.90304687 -49.125 109.9375 C-64.28927991 90.91456216 -88.06279222 83.34688001 -111.44064331 80.28182983 C-118.64979683 79.48797623 -125.88124743 79.51041719 -133.125 79.5625 C-134.3829538 79.56456955 -134.3829538 79.56456955 -135.6663208 79.56668091 C-149.15371252 79.60745102 -162.08199724 80.66533367 -175.30224609 83.51928711 C-179.1716614 84.2087784 -183.09367365 84.56596374 -187 85 C-187 91.93 -187 98.86 -187 106 C-183.90625 105.071875 -180.8125 104.14375 -177.625 103.1875 C-141.95751367 92.92448986 -107.71332588 95.44000344 -74 111 C-74 121.89 -74 132.78 -74 144 C-77.70869105 142.51652358 -80.16630208 141.32100265 -83.375 139.1875 C-94.80706002 132.19839305 -108.8330369 128.68378541 -122.171875 128.69921875 C-123.01615051 128.69493362 -123.86042603 128.6906485 -124.73028564 128.68623352 C-126.50507721 128.68052999 -128.27989214 128.67996033 -130.0546875 128.68432617 C-132.72958548 128.68747596 -135.40336398 128.66401223 -138.078125 128.63867188 C-147.9211148 128.60404243 -156.47480735 129.30593432 -166 132 C-165.505 138.93 -165.505 138.93 -165 146 C-162.27070664 145.52154615 -159.54156349 145.04226177 -156.8125 144.5625 C-155.65911133 144.36043945 -155.65911133 144.36043945 -154.48242188 144.15429688 C-153.73154297 144.02216797 -152.98066406 143.89003906 -152.20703125 143.75390625 C-151.17799683 143.57323608 -151.17799683 143.57323608 -150.12817383 143.38891602 C-148.62125362 143.11353184 -147.12086692 142.8012206 -145.62670898 142.46337891 C-122.92308298 138.45822209 -94.74572401 141.62713799 -74 152 C-73.89944018 162.05598201 -73.90054108 171.98707052 -75 182 C-79.24985313 181.06441326 -82.85241753 179.11929628 -86.6875 177.125 C-100.97058034 169.86730466 -113.99429545 167.62446039 -130.0625 167.6875 C-130.73999298 167.68766113 -131.41748596 167.68782227 -132.11550903 167.68798828 C-142.98692607 167.70595359 -153.39978429 168.55715194 -164 171 C-164 175.62 -164 180.24 -164 185 C-162.92621094 184.79503906 -161.85242188 184.59007812 -160.74609375 184.37890625 C-159.3099114 184.10668868 -157.8737126 183.83455789 -156.4375 183.5625 C-155.38079102 183.36043945 -155.38079102 183.36043945 -154.30273438 183.15429688 C-153.60341797 183.02216797 -152.90410156 182.89003906 -152.18359375 182.75390625 C-151.23311157 182.57323608 -151.23311157 182.57323608 -150.26342773 182.38891602 C-126.60068806 178.32303916 -99.86090567 179.39370057 -78 190 C-74.97485897 192.30939977 -74.08682085 193.38665273 -73.54589844 197.20800781 C-73.5668457 198.44389648 -73.58779297 199.67978516 -73.609375 200.953125 C-73.61503479 201.61334656 -73.62069458 202.27356812 -73.62652588 202.95379639 C-73.6488377 205.05328263 -73.69901686 207.1510337 -73.75 209.25 C-73.77007206 210.6770586 -73.78832161 212.10414408 -73.8046875 213.53125 C-73.84868307 217.02139293 -73.91767124 220.51052699 -74 224 C-78.02210892 222.4556049 -81.40851816 220.54095338 -85.0625 218.25 C-99.23971278 209.74989809 -115.40769854 206.80423352 -131.6875 206.8125 C-132.98067139 206.81185547 -134.27384277 206.81121094 -135.60620117 206.81054688 C-145.56979576 206.86519295 -155.1366419 207.6277067 -165 209 C-165 213.95 -165 218.9 -165 224 C-162.94458984 223.566875 -162.94458984 223.566875 -160.84765625 223.125 C-131.11868226 217.20449973 -101.40781038 218.29609481 -74 232 C-74 242.23 -74 252.46 -74 263 C-80.72563718 261.87906047 -80.72563718 261.87906047 -84.36328125 260.29296875 C-85.55787964 259.78648804 -85.55787964 259.78648804 -86.77661133 259.26977539 C-87.61345459 258.91262451 -88.45029785 258.55547363 -89.3125 258.1875 C-117.9036988 246.35074897 -148.08704265 246.78982104 -178 253 C-181.33267518 253.66996749 -184.66626023 254.33535206 -188 255 C-188.98570412 225.34291094 -189.12710092 195.71021904 -189.06866455 166.03875732 C-189.05821064 160.14368057 -189.05382101 154.24859909 -189.04882812 148.35351562 C-189.0382823 136.90233194 -189.02134597 125.45116832 -189 114 C-189.80824219 114.2165625 -190.61648438 114.433125 -191.44921875 114.65625 C-192.51785156 114.9346875 -193.58648437 115.213125 -194.6875 115.5 C-195.74324219 115.7784375 -196.79898438 116.056875 -197.88671875 116.34375 C-201 117 -201 117 -206 117 C-206 180.03 -206 243.06 -206 308 C-192.47 308 -178.94 308 -165 308 C-163.68 308.99 -162.36 309.98 -161 311 C-158.58969804 311.9590286 -156.19892733 312.84281809 -153.75 313.6875 C-145.13126555 316.79767878 -137.0807141 320.70057792 -129 325 C-127.93136719 325.55816406 -126.86273438 326.11632812 -125.76171875 326.69140625 C-107.32223386 336.75544745 -90.13901913 349.41895921 -73.79345703 362.56054688 C-72.21410928 363.82815297 -70.62170408 365.07945384 -69.02734375 366.328125 C-64.01714663 370.26194283 -59.27559279 374.41865987 -54.5703125 378.7109375 C-51.03412536 381.86018623 -47.35710746 384.82083919 -43.671875 387.79296875 C-41.10204595 389.91570766 -38.64276258 392.12159626 -36.1875 394.375 C-32.94633347 397.30137697 -30.0339767 399.3450352 -26 401 C-31.75083106 406.75083106 -44.56612072 404.3789716 -52.30981445 404.39160156 C-64.7435952 404.32902075 -76.4120044 402.71321847 -88.48046875 399.640625 C-90.67840709 399.08176936 -92.87792974 398.57525621 -95.09375 398.09375 C-124.06974429 391.29069047 -150.90669618 375.60636124 -173 356 C-174.29164063 354.87464844 -174.29164063 354.87464844 -175.609375 353.7265625 C-185.97815429 344.57958205 -195.50422215 334.92314295 -204 324 C-204.70382812 323.13632812 -205.40765625 322.27265625 -206.1328125 321.3828125 C-222.79737016 300.29826464 -232.39788494 275.79987019 -239 250 C-239.31839844 248.75734375 -239.63679687 247.5146875 -239.96484375 246.234375 C-245.86622295 220.98469286 -246.54349762 191.56370215 -242 166 C-241.82259277 164.89519287 -241.82259277 164.89519287 -241.64160156 163.76806641 C-236.90348554 134.46529034 -225.51253641 106.00627894 -208 82 C-207.22156828 80.88578055 -206.44549756 79.76990765 -205.671875 78.65234375 C-201.71008464 73.01605567 -201.71008464 73.01605567 -200 71 C-199.34 71 -198.68 71 -198 71 C-197.74089844 70.26265625 -197.48179687 69.5253125 -197.21484375 68.765625 C-193.80445411 61.00177978 -186.46435639 55.51438088 -179.96875 50.375 C-177.92413392 48.73930713 -175.93679414 47.09640945 -173.96875 45.375 C-161.1163812 34.14274525 -147.13444855 24.87735642 -132 17 C-131.33419922 16.65340332 -130.66839844 16.30680664 -129.98242188 15.94970703 C-90.80044841 -4.12209795 -42.9329027 -10.09503388 0 0 Z " fill="#F9FBFB" transform="translate(492,235)"/>
<path d="M0 0 C0.95752167 -0.00570007 1.91504333 -0.01140015 2.90158081 -0.01727295 C4.92705192 -0.02668276 6.95253807 -0.03324086 8.97802734 -0.03710938 C11.997364 -0.04669305 15.01598246 -0.07770361 18.03515625 -0.109375 C71.79154504 -0.40304462 124.03347673 20.31171384 163.9296875 56.203125 C164.54086426 56.75258789 165.15204102 57.30205078 165.78173828 57.86816406 C208.25300075 96.29505523 237.78581047 151.33074731 241.04356384 209.22691345 C241.10909176 211.34042252 241.14591525 213.45199768 241.16796875 215.56640625 C241.17771729 216.34776947 241.18746582 217.12913269 241.19750977 217.93417358 C241.3833224 236.72470845 240.7682151 254.73060229 236.9296875 273.203125 C236.74245117 274.10998047 236.55521484 275.01683594 236.36230469 275.95117188 C229.01704565 310.27979184 214.13375677 341.13874718 191.9296875 368.203125 C191.42179687 368.82815918 190.91390625 369.45319336 190.390625 370.09716797 C179.28553848 383.70015663 166.95305901 396.59346495 152.9296875 407.203125 C152.37490723 407.62899902 151.82012695 408.05487305 151.24853516 408.49365234 C142.18872717 415.42926112 132.84749721 421.57098267 122.9296875 427.203125 C122.3428418 427.5444043 121.75599609 427.88568359 121.15136719 428.23730469 C93.04174337 444.52934955 59.57993383 453.23583899 27.13671875 453.40625 C26.23617767 453.41330963 25.3356366 453.42036926 24.4078064 453.42764282 C-34.37824725 453.78393728 -86.57852763 439.24039663 -131.0703125 399.203125 C-131.60527344 398.72456055 -132.14023437 398.24599609 -132.69140625 397.75292969 C-178.14734052 356.99262677 -206.54999004 301.08624778 -209.9453125 239.6875 C-210.78116488 216.38811482 -208.62253675 193.87091767 -203.0703125 171.203125 C-202.78631592 170.04224365 -202.78631592 170.04224365 -202.49658203 168.85791016 C-196.13174514 143.66542016 -184.43228958 118.15698739 -169.0703125 97.203125 C-168.38839844 96.25050781 -167.70648438 95.29789062 -167.00390625 94.31640625 C-154.92547732 77.7868926 -141.23799967 62.80078987 -125.0703125 50.203125 C-123.8148414 49.19563985 -122.5596515 48.18780423 -121.3046875 47.1796875 C-87.59060447 20.40567362 -43.66629692 0.20714236 0 0 Z M-16.0703125 25.203125 C-16.79041504 25.32671387 -17.51051758 25.45030273 -18.25244141 25.57763672 C-56.4347582 32.24721355 -88.62744081 50.58888427 -118.0703125 75.203125 C-118.64104492 75.67153809 -119.21177734 76.13995117 -119.79980469 76.62255859 C-130.5990015 85.32194111 -130.5990015 85.32194111 -139.0703125 96.203125 C-139.0703125 96.863125 -139.0703125 97.523125 -139.0703125 98.203125 C-139.66779297 98.45102783 -140.26527344 98.69893066 -140.88085938 98.9543457 C-143.42712102 100.40663477 -144.46490439 101.76499474 -146.1015625 104.18359375 C-146.65900146 105.00617676 -147.21644043 105.82875977 -147.79077148 106.67626953 C-148.37802002 107.57200684 -148.96526855 108.46774414 -149.5703125 109.390625 C-150.18398682 110.32245605 -150.79766113 111.25428711 -151.42993164 112.21435547 C-161.78014379 128.22456892 -170.3155637 145.01044059 -176.0703125 163.203125 C-176.42730225 164.32944336 -176.42730225 164.32944336 -176.79150391 165.47851562 C-192.34182178 215.61024032 -188.15575206 274.61922954 -164.18969727 321.41674805 C-158.12974203 332.91545881 -151.60078548 343.34506185 -143.0703125 353.203125 C-142.25046875 354.20601562 -141.430625 355.20890625 -140.5859375 356.2421875 C-130.31771628 368.79137944 -118.94144839 380.31687586 -106.0703125 390.203125 C-104.74580078 391.27046875 -104.74580078 391.27046875 -103.39453125 392.359375 C-90.32004707 402.63089231 -75.40686915 410.82208308 -60.0703125 417.203125 C-59.01239502 417.64350098 -59.01239502 417.64350098 -57.93310547 418.09277344 C-45.29869841 423.25001126 -32.45317528 426.60864992 -19.0703125 429.203125 C-17.70869995 429.48567139 -17.70869995 429.48567139 -16.31958008 429.77392578 C-7.75369216 431.40946253 0.68609527 431.51818929 9.3671875 431.453125 C10.11635437 431.44969086 10.86552124 431.44625671 11.63739014 431.44271851 C66.77559614 431.14708112 116.80821735 413.44842995 156.18603516 374.13769531 C160.62314058 369.6482839 164.83401059 365.00514192 168.9296875 360.203125 C169.42307617 359.62715576 169.91646484 359.05118652 170.42480469 358.45776367 C191.68681096 333.35739042 206.56929274 302.48863757 212.9296875 270.203125 C213.07390137 269.47287109 213.21811523 268.74261719 213.36669922 267.99023438 C218.7328815 240.29614631 218.83627598 211.80441396 212.9296875 184.203125 C212.74776855 183.32414551 212.56584961 182.44516602 212.37841797 181.53955078 C204.19323256 142.85193182 182.80695502 100.69218894 150.70703125 76.3125 C148.99610878 75.02662631 148.99610878 75.02662631 146.9296875 75.203125 C146.77826294 74.29663208 146.77826294 74.29663208 146.6237793 73.37182617 C145.79765838 70.79059786 144.98178468 70.09408878 142.82421875 68.50390625 C142.17815674 68.02171631 141.53209473 67.53952637 140.86645508 67.04272461 C140.16544678 66.53878174 139.46443848 66.03483887 138.7421875 65.515625 C137.65296997 64.72007202 137.65296997 64.72007202 136.54174805 63.90844727 C134.34998938 62.32185606 132.14448845 60.75735342 129.9296875 59.203125 C129.04410156 58.58099121 129.04410156 58.58099121 128.140625 57.94628906 C103.94118044 41.18731354 76.86495038 30.28600308 47.9296875 25.203125 C46.94758301 25.01766113 45.96547852 24.83219727 44.95361328 24.64111328 C36.01148287 23.07759071 27.22226134 22.88669517 18.1796875 22.953125 C17.05250809 22.95777771 17.05250809 22.95777771 15.90255737 22.96252441 C5.12169295 23.01474241 -5.43629352 23.27467596 -16.0703125 25.203125 Z " fill="#0A293F" transform="translate(433.0703125,207.796875)"/>
<path d="M0 0 C1.32 0.66 2.64 1.32 4 2 C4 8.27 4 14.54 4 21 C6.64 21 9.28 21 12 21 C12 21.33 12 21.66 12 22 C10.02 22 8.04 22 6 22 C6 28.93 6 35.86 6 43 C9.09375 42.071875 12.1875 41.14375 15.375 40.1875 C51.04248633 29.92448986 85.28667412 32.44000344 119 48 C119 58.89 119 69.78 119 81 C115.29130895 79.51652358 112.83369792 78.32100265 109.625 76.1875 C98.19293998 69.19839305 84.1669631 65.68378541 70.828125 65.69921875 C69.98384949 65.69493362 69.13957397 65.6906485 68.26971436 65.68623352 C66.49492279 65.68052999 64.72010786 65.67996033 62.9453125 65.68432617 C60.27041452 65.68747596 57.59663602 65.66401223 54.921875 65.63867188 C45.0788852 65.60404243 36.52519265 66.30593432 27 69 C27.495 75.93 27.495 75.93 28 83 C30.72929336 82.52154615 33.45843651 82.04226177 36.1875 81.5625 C37.34088867 81.36043945 37.34088867 81.36043945 38.51757812 81.15429688 C39.26845703 81.02216797 40.01933594 80.89003906 40.79296875 80.75390625 C41.4789917 80.63345947 42.16501465 80.5130127 42.87182617 80.38891602 C44.37874638 80.11353184 45.87913308 79.8012206 47.37329102 79.46337891 C70.07691702 75.45822209 98.25427599 78.62713799 119 89 C119.10055982 99.05598201 119.09945892 108.98707052 118 119 C113.75014687 118.06441326 110.14758247 116.11929628 106.3125 114.125 C92.02941966 106.86730466 79.00570455 104.62446039 62.9375 104.6875 C62.26000702 104.68766113 61.58251404 104.68782227 60.88449097 104.68798828 C50.01307393 104.70595359 39.60021571 105.55715194 29 108 C29 112.62 29 117.24 29 122 C30.07378906 121.79503906 31.14757812 121.59007812 32.25390625 121.37890625 C33.6900886 121.10668868 35.1262874 120.83455789 36.5625 120.5625 C37.61920898 120.36043945 37.61920898 120.36043945 38.69726562 120.15429688 C39.74624023 119.95610352 39.74624023 119.95610352 40.81640625 119.75390625 C41.45006104 119.63345947 42.08371582 119.5130127 42.73657227 119.38891602 C66.39931194 115.32303916 93.13909433 116.39370057 115 127 C118.02514103 129.30939977 118.91317915 130.38665273 119.45410156 134.20800781 C119.4331543 135.44389648 119.41220703 136.67978516 119.390625 137.953125 C119.38496521 138.61334656 119.37930542 139.27356812 119.37347412 139.95379639 C119.3511623 142.05328263 119.30098314 144.1510337 119.25 146.25 C119.22992794 147.6770586 119.21167839 149.10414408 119.1953125 150.53125 C119.15131693 154.02139293 119.08232876 157.51052699 119 161 C114.97789108 159.4556049 111.59148184 157.54095338 107.9375 155.25 C93.76028722 146.74989809 77.59230146 143.80423352 61.3125 143.8125 C60.01932861 143.81185547 58.72615723 143.81121094 57.39379883 143.81054688 C47.43020424 143.86519295 37.8633581 144.6277067 28 146 C28 150.95 28 155.9 28 161 C30.05541016 160.566875 30.05541016 160.566875 32.15234375 160.125 C61.88131774 154.20449973 91.59218962 155.29609481 119 169 C119 179.23 119 189.46 119 200 C112.27436282 198.87906047 112.27436282 198.87906047 108.63671875 197.29296875 C107.44212036 196.78648804 107.44212036 196.78648804 106.22338867 196.26977539 C105.38654541 195.91262451 104.54970215 195.55547363 103.6875 195.1875 C75.0963012 183.35074897 44.91295735 183.78982104 15 190 C11.66732482 190.66996749 8.33373977 191.33535206 5 192 C4.01429588 162.34291094 3.87289908 132.71021904 3.93133545 103.03875732 C3.94178936 97.14368057 3.94617899 91.24859909 3.95117188 85.35351562 C3.9617177 73.90233194 3.97865403 62.45116832 4 51 C3.19175781 51.2165625 2.38351562 51.433125 1.55078125 51.65625 C0.48214844 51.9346875 -0.58648437 52.213125 -1.6875 52.5 C-2.74324219 52.7784375 -3.79898438 53.056875 -4.88671875 53.34375 C-8 54 -8 54 -13 54 C-13 117.03 -13 180.06 -13 245 C0.53 245 14.06 245 28 245 C29.32 245.99 30.64 246.98 32 248 C34.41030196 248.9590286 36.80107267 249.84281809 39.25 250.6875 C47.86873445 253.79767878 55.9192859 257.70057792 64 262 C65.06863281 262.55816406 66.13726562 263.11632812 67.23828125 263.69140625 C85.67776614 273.75544745 102.86098087 286.41895921 119.20654297 299.56054688 C120.78589072 300.82815297 122.37829592 302.07945384 123.97265625 303.328125 C128.98285337 307.26194283 133.72440721 311.41865987 138.4296875 315.7109375 C141.96587464 318.86018623 145.64289254 321.82083919 149.328125 324.79296875 C151.89795405 326.91570766 154.35723742 329.12159626 156.8125 331.375 C160.05366653 334.30137697 162.9660233 336.3450352 167 338 C161.24916894 343.75083106 148.43387928 341.3789716 140.69018555 341.39160156 C128.2564048 341.32902075 116.5879956 339.71321847 104.51953125 336.640625 C102.32159291 336.08176936 100.12207026 335.57525621 97.90625 335.09375 C68.93025571 328.29069047 42.09330382 312.60636124 20 293 C18.70835937 291.87464844 18.70835937 291.87464844 17.390625 290.7265625 C7.02184571 281.57958205 -2.50422215 271.92314295 -11 261 C-11.70382812 260.13632812 -12.40765625 259.27265625 -13.1328125 258.3828125 C-29.79737016 237.29826464 -39.39788494 212.79987019 -46 187 C-46.31839844 185.75734375 -46.63679687 184.5146875 -46.96484375 183.234375 C-52.86622295 157.98469286 -53.54349762 128.56370215 -49 103 C-48.82259277 101.89519287 -48.82259277 101.89519287 -48.64160156 100.76806641 C-43.90348554 71.46529034 -32.51253641 43.00627894 -15 19 C-14.22156828 17.88578055 -13.44549756 16.76990765 -12.671875 15.65234375 C-8.71008464 10.01605567 -8.71008464 10.01605567 -7 8 C-6.34 8 -5.68 8 -5 8 C-4.731875 7.236875 -4.46375 6.47375 -4.1875 5.6875 C-3.05575888 3.12619116 -2.08776599 1.80307062 0 0 Z " fill="#CBEDF3" transform="translate(299,298)"/>
<path d="M0 0 C9.39184231 1.25224564 17.98403698 2.48157458 27 5 C29.65267702 14.61427104 32.05533737 24.21395577 34 34 C34.28101563 35.2271875 34.56203125 36.454375 34.8515625 37.71875 C39.31634443 58.68269734 38.4940608 82.92990023 35 104 C34.87641113 104.7528125 34.75282227 105.505625 34.62548828 106.28125 C27.15832965 149.72653658 5.32091233 185.91536236 -24.54443359 217.4609375 C-25.92917752 218.92511491 -27.30279506 220.39979148 -28.67578125 221.875 C-57.20267014 251.62748856 -100.8599605 269.50585024 -141.4375 273.0625 C-142.129646 273.13718506 -142.82179199 273.21187012 -143.53491211 273.28881836 C-147.36625508 273.52586273 -148.78210803 273.18275804 -151.76171875 270.68359375 C-152.50035156 269.79800781 -153.23898437 268.91242188 -154 268 C-155.11145798 266.98496988 -156.23595077 265.98396741 -157.375 265 C-158.40173828 264.11054687 -158.40173828 264.11054687 -159.44921875 263.203125 C-160.29097656 262.47609375 -161.13273437 261.7490625 -162 261 C-163.13179347 260.01595045 -164.26327908 259.03154677 -165.39453125 258.046875 C-169.2551745 254.68880369 -173.12512953 251.34164054 -177 248 C-177.57476074 247.50387207 -178.14952148 247.00774414 -178.74169922 246.49658203 C-186.08730146 240.17042238 -193.5715556 234.08058325 -201.32421875 228.25927734 C-202.4387079 227.42178681 -203.55070925 226.58097505 -204.66015625 225.73681641 C-226.81258036 208.89763323 -249.98574766 194.5389108 -275.71142578 183.94628906 C-278.82072628 182.66064273 -281.91072583 181.33295684 -285 180 C-285 179.67 -285 179.34 -285 179 C-258.27 179 -231.54 179 -204 179 C-204 193.19 -204 207.38 -204 222 C-203.34 222 -202.68 222 -202 222 C-202 221.34 -202 220.68 -202 220 C-200.32783424 218.45668764 -198.58548462 216.98885091 -196.8125 215.5625 C-195.84957031 214.78003906 -194.88664062 213.99757813 -193.89453125 213.19140625 C-191.33851438 211.25628417 -188.78369018 209.58268308 -186 208 C-183.69 209.32 -181.38 210.64 -179 212 C-178.67 201.11 -178.34 190.22 -178 179 C-169.09 179 -160.18 179 -151 179 C-151 189.89 -151 200.78 -151 212 C-147.535 210.02 -147.535 210.02 -144 208 C-139.92654765 208.06503335 -137.94813311 209.55669087 -135.0625 212.3125 C-131.79923971 215.40154106 -128.88586175 217.4094255 -125 220 C-125 206.47 -125 192.94 -125 179 C-83.75 179 -42.5 179 0 179 C0 119.93 0 60.86 0 0 Z " fill="#619FAD" transform="translate(613,365)"/>
<path d="M0 0 C0 10.89 0 21.78 0 33 C-3.70869105 31.51652358 -6.16630208 30.32100265 -9.375 28.1875 C-20.80706002 21.19839305 -34.8330369 17.68378541 -48.171875 17.69921875 C-49.43828827 17.69279106 -49.43828827 17.69279106 -50.73028564 17.68623352 C-52.50507721 17.68052999 -54.27989214 17.67996033 -56.0546875 17.68432617 C-58.72958548 17.68747596 -61.40336398 17.66401223 -64.078125 17.63867188 C-73.9211148 17.60404243 -82.47480735 18.30593432 -92 21 C-91.505 27.93 -91.505 27.93 -91 35 C-88.27070664 34.52154615 -85.54156349 34.04226177 -82.8125 33.5625 C-82.04357422 33.42779297 -81.27464844 33.29308594 -80.48242188 33.15429688 C-79.73154297 33.02216797 -78.98066406 32.89003906 -78.20703125 32.75390625 C-77.17799683 32.57323608 -77.17799683 32.57323608 -76.12817383 32.38891602 C-74.62125362 32.11353184 -73.12086692 31.8012206 -71.62670898 31.46337891 C-48.92308298 27.45822209 -20.74572401 30.62713799 0 41 C0.10055982 51.05598201 0.09945892 60.98707052 -1 71 C-5.24985313 70.06441326 -8.85241753 68.11929628 -12.6875 66.125 C-26.97058034 58.86730466 -39.99429545 56.62446039 -56.0625 56.6875 C-56.73999298 56.68766113 -57.41748596 56.68782227 -58.11550903 56.68798828 C-68.98692607 56.70595359 -79.39978429 57.55715194 -90 60 C-90 64.62 -90 69.24 -90 74 C-88.92621094 73.79503906 -87.85242188 73.59007812 -86.74609375 73.37890625 C-85.3099114 73.10668868 -83.8737126 72.83455789 -82.4375 72.5625 C-81.73302734 72.42779297 -81.02855469 72.29308594 -80.30273438 72.15429688 C-79.60341797 72.02216797 -78.90410156 71.89003906 -78.18359375 71.75390625 C-77.54993896 71.63345947 -76.91628418 71.5130127 -76.26342773 71.38891602 C-52.60068806 67.32303916 -25.86090567 68.39370057 -4 79 C-0.97485897 81.30939977 -0.08682085 82.38665273 0.45410156 86.20800781 C0.4331543 87.44389648 0.41220703 88.67978516 0.390625 89.953125 C0.38496521 90.61334656 0.37930542 91.27356812 0.37347412 91.95379639 C0.3511623 94.05328263 0.30098314 96.1510337 0.25 98.25 C0.22992794 99.6770586 0.21167839 101.10414408 0.1953125 102.53125 C0.15131693 106.02139293 0.08232876 109.51052699 0 113 C-4.02210892 111.4556049 -7.40851816 109.54095338 -11.0625 107.25 C-25.23971278 98.74989809 -41.40769854 95.80423352 -57.6875 95.8125 C-58.98067139 95.81185547 -60.27384277 95.81121094 -61.60620117 95.81054688 C-71.56979576 95.86519295 -81.1366419 96.6277067 -91 98 C-91 102.95 -91 107.9 -91 113 C-89.62972656 112.71125 -88.25945312 112.4225 -86.84765625 112.125 C-57.11868226 106.20449973 -27.40781038 107.29609481 0 121 C0 131.23 0 141.46 0 152 C-6.72563718 150.87906047 -6.72563718 150.87906047 -10.36328125 149.29296875 C-11.55787964 148.78648804 -11.55787964 148.78648804 -12.77661133 148.26977539 C-14.03187622 147.73404907 -14.03187622 147.73404907 -15.3125 147.1875 C-43.9036988 135.35074897 -74.08704265 135.78982104 -104 142 C-105.72609858 142.3467077 -107.45241505 142.69233151 -109.17889404 143.03713989 C-110.5323398 143.30753428 -110.5323398 143.30753428 -111.9131279 143.58339119 C-112.60179569 143.7208721 -113.29046349 143.858353 -114 144 C-114.07002839 125.14618537 -114.12295786 106.29239706 -114.15543652 87.43847942 C-114.17091661 78.68460942 -114.19202787 69.93082015 -114.22631836 61.17700195 C-114.25618584 53.54868209 -114.27556669 45.92042069 -114.28226548 38.29204398 C-114.28618226 34.25148873 -114.29541076 30.21110072 -114.31719017 26.17059898 C-114.33751356 22.36951431 -114.34384229 18.56866619 -114.33932304 14.76753235 C-114.34015011 13.37069222 -114.34614059 11.97384439 -114.35761642 10.57705116 C-114.37249375 8.67326671 -114.36717716 6.76935607 -114.36076355 4.86552429 C-114.36352893 3.79900981 -114.36629431 2.73249533 -114.36914349 1.63366222 C-113.94398675 -1.39962772 -113.40152485 -2.1833844 -111 -4 C-105.29480564 -7.83561181 -99.74601826 -9.28400629 -93.0625 -10.6875 C-92.11181641 -10.89955078 -91.16113281 -11.11160156 -90.18164062 -11.33007812 C-59.10112237 -18.12023959 -28.58864482 -13.19475915 0 0 Z " fill="#F8FAFA" transform="translate(418,346)"/>
<path d="M0 0 C10.16983696 6.7798913 10.16983696 6.7798913 13.4375 10.625 C14.07558594 11.35976563 14.71367187 12.09453125 15.37109375 12.8515625 C18.53234461 17.02107802 19.24936847 19.87513116 19.24050903 25.13763428 C19.24325836 26.39684189 19.24600769 27.6560495 19.24884033 28.95341492 C19.24176251 30.34622288 19.23449289 31.73902988 19.22705078 33.13183594 C19.22648656 34.60038749 19.22680345 36.06893962 19.22793579 37.53749084 C19.22850987 41.52271348 19.21674667 45.50781585 19.20278788 49.49301052 C19.19028969 53.65835906 19.18911074 57.82371031 19.18673706 61.98907471 C19.18051961 69.87610402 19.16410521 77.76307792 19.14403808 85.65008283 C19.12168733 94.62944073 19.11068772 103.60880127 19.10064721 112.58818007 C19.07973922 131.05881813 19.04455808 149.52940461 19 168 C18.46191586 167.59227041 17.92383171 167.18454082 17.36944199 166.7644558 C16.65759876 166.22733278 15.94575554 165.69020977 15.21234131 165.1368103 C14.50925716 164.60533072 13.80617302 164.07385113 13.08178329 163.5262661 C11.28995801 162.21258364 9.47766748 161.00011704 7.60253906 159.81103516 C2.84680988 156.50338865 -0.51522164 154.13007016 -1.86523438 148.19824219 C-2.10380972 143.88790429 -1.69430786 139.65919336 -1.25 135.375 C-1.14138193 133.87931295 -1.03847001 132.38320004 -0.94140625 130.88671875 C-0.69322485 127.25054761 -0.36829188 123.62620953 0 120 C-0.57645264 119.81244141 -1.15290527 119.62488281 -1.74682617 119.43164062 C-6.33451434 117.92346366 -10.82228337 116.2801113 -15.3125 114.5 C-36.09719754 107.14985589 -60.16022965 106.69508503 -81.57421875 111.34375 C-85 112 -85 112 -91 112 C-91 107.05 -91 102.1 -91 97 C-69.08616811 92.42667856 -46.29830272 91.27398484 -25 99 C-23.89011719 99.38414062 -22.78023438 99.76828125 -21.63671875 100.1640625 C-13.8297066 103.14105546 -6.9956694 107.49532039 0 112 C-0.06887495 107.78188503 -0.15683738 103.56472995 -0.26245117 99.34741211 C-0.29569001 97.91295372 -0.32372535 96.47836487 -0.34643555 95.04370117 C-0.38000271 92.98039193 -0.43231413 90.91827697 -0.48828125 88.85546875 C-0.51446533 87.61434326 -0.54064941 86.37321777 -0.56762695 85.09448242 C-0.7463094 82.04711467 -0.7463094 82.04711467 -2.33227539 80.1652832 C-21.58555194 66.7125107 -53.32025079 67.64026332 -75.21704102 71.03076172 C-78.49640987 71.61502314 -81.74481195 72.2925098 -85 73 C-87.97 73.495 -87.97 73.495 -91 74 C-91 69.05 -91 64.1 -91 59 C-79.63276234 55.21092078 -68.47896125 54.65810567 -56.5625 54.6875 C-55.25990234 54.67138672 -53.95730469 54.65527344 -52.61523438 54.63867188 C-35.83487462 54.63031928 -20.19045253 58.63472495 -6.0234375 67.765625 C-3.92483237 69.14955487 -3.92483237 69.14955487 -1 70 C-1.01160156 69.34257812 -1.02320313 68.68515625 -1.03515625 68.0078125 C-1.12398312 58.64292214 -0.58127521 49.34192305 0 40 C-0.57105469 39.82984375 -1.14210938 39.6596875 -1.73046875 39.484375 C-2.54128906 39.24203125 -3.35210937 38.9996875 -4.1875 38.75 C-5.10789062 38.47800781 -6.02828125 38.20601563 -6.9765625 37.92578125 C-8.98218368 37.31165694 -10.97767624 36.6633595 -12.9609375 35.98046875 C-26.71697393 31.35469831 -40.29863422 30.81584106 -54.6875 30.6875 C-55.88632812 30.66977539 -57.08515625 30.65205078 -58.3203125 30.63378906 C-65.83785792 30.63996448 -72.66159584 31.54329876 -79.96459961 33.33642578 C-83.77491715 34.169406 -87.12154857 34.23270709 -91 34 C-93.05322395 29.8935521 -92.0481209 24.52336487 -92 20 C-81.89685157 15.98828735 -72.71983877 15.34365658 -61.97314453 15.42358398 C-59.39872648 15.43737292 -56.82801552 15.40335657 -54.25390625 15.36523438 C-33.98007437 15.27046347 -16.87633438 20.74911042 0 32 C0 21.44 0 10.88 0 0 Z " fill="#B2D8E2" transform="translate(418,347)"/>
<path d="M0 0 C3.1867517 0.00259541 6.37349303 0.00193661 9.56024551 0.00118637 C38.4625143 0.00904543 67.28456514 0.57176871 96.1428566 2.19005966 C96.90377483 2.23165459 97.66469307 2.27324951 98.44866943 2.31610489 C102.7956298 2.55404304 107.14125655 2.80672407 111.48590469 3.08382225 C113.366381 3.20319863 115.24728742 3.31574211 117.12820816 3.42789841 C130.05080215 4.32660464 142.27499876 6.90916023 154.4553566 11.37755966 C154.5178566 13.62755966 154.5178566 13.62755966 153.4553566 16.37755966 C146.90643312 21.14133414 138.22767462 21.56814681 130.4553566 22.50255966 C129.15880142 22.66796249 127.86224625 22.83336533 126.52640152 23.00378036 C123.96750382 23.32822433 121.40786318 23.64687284 118.84744644 23.95910263 C116.12513841 24.29493363 113.40939074 24.65357781 110.69363785 25.03771591 C88.48260098 28.02128803 65.80765195 27.53913372 43.44363785 27.54552841 C42.10266158 27.54695968 40.76168549 27.5485573 39.42070961 27.55031395 C32.40173676 27.55947679 25.3827825 27.56366015 18.36380386 27.5628624 C11.9313894 27.56226309 5.49905917 27.57280986 -0.93333405 27.58860606 C-6.5512853 27.60188603 -12.1692097 27.60703798 -17.78717643 27.60640699 C-21.10050507 27.60615803 -24.41369979 27.6096604 -27.72702217 27.61958504 C-52.47234014 27.6868003 -77.11874959 26.48969612 -101.71480942 23.6824913 C-103.93619957 23.43111348 -106.15911123 23.19809792 -108.38253403 22.96545029 C-129.64617013 20.65234337 -129.64617013 20.65234337 -135.5446434 13.37755966 C-129.41677764 7.97061928 -123.22939137 7.02522519 -115.3805809 6.15880966 C-114.47562881 6.05540268 -113.57067673 5.9519957 -112.63830185 5.84545517 C-110.70706891 5.62704671 -108.77544352 5.41208495 -106.84347153 5.20031357 C-104.0313981 4.88989598 -101.22173726 4.56240022 -98.4118309 4.23302841 C-65.69487678 0.51247089 -32.89394343 -0.02815546 0 0 Z " fill="#9FD9E1" transform="translate(439.5446434020996,688.6224403381348)"/>
<path d="M0 0 C0.99 0.33 1.98 0.66 3 1 C2.67 11.56 2.34 22.12 2 33 C5.63 30.03 9.26 27.06 13 24 C15.77516589 22.36770021 18.28708951 20.98010567 21.1875 19.6875 C22.12819336 19.22633789 22.12819336 19.22633789 23.08789062 18.75585938 C35.94664612 12.81817654 49.05702075 11.33692751 63.0456543 11.47851562 C65.5646143 11.50001805 68.08073333 11.47855584 70.59960938 11.453125 C81.12093449 11.43770293 89.9454862 12.85054384 100 16 C100 20.95 100 25.9 100 31 C98.14375 30.71125 96.2875 30.4225 94.375 30.125 C92.68961223 29.86282857 91.00398893 29.60202897 89.31689453 29.35107422 C87.51907171 29.07865386 85.72359195 28.79074945 83.92919922 28.49658203 C54.9066737 23.95913704 28.18903045 26.90548478 2 40 C2 50.23 2 60.46 2 71 C5.22892471 69.38553764 7.74723737 67.80129633 10.625 65.6875 C26.385677 54.59750538 44.35890569 50.59292186 63.4375 50.6875 C64.55189453 50.68951416 65.66628906 50.69152832 66.81445312 50.69360352 C91.98531954 50.99265977 91.98531954 50.99265977 100 55 C100 59.95 100 64.9 100 70 C87.41602916 68.11240437 87.41602916 68.11240437 85.06655884 67.47761536 C82.88474601 66.97336293 80.93813527 66.85291459 78.70068359 66.82299805 C77.85815033 66.81016281 77.01561707 66.79732758 76.14755249 66.78410339 C74.78674057 66.77302299 74.78674057 66.77302299 73.3984375 66.76171875 C72.44796539 66.753647 71.49749329 66.74557526 70.51821899 66.73725891 C68.49914361 66.72342737 66.48004493 66.71270105 64.4609375 66.70483398 C62.42863953 66.69341839 60.39636898 66.67313638 58.36425781 66.64331055 C39.73794004 66.37029131 23.64441591 68.25293458 7 77 C5.02 77.99 5.02 77.99 3 79 C2.67 90.55 2.34 102.1 2 114 C4.64 111.69 7.28 109.38 10 107 C15.48452902 102.51265807 21.31688097 99.15948199 27.75 96.25 C28.65975586 95.82750977 28.65975586 95.82750977 29.58789062 95.39648438 C40.85804749 90.533255 52.59466599 89.50254829 64.70361328 89.60888672 C66.866857 89.62493957 69.02821927 89.60895231 71.19140625 89.58984375 C81.15102158 89.57715634 90.25191577 90.92289975 100 93 C100 97.95 100 102.9 100 108 C94.58769657 108.25772873 89.75350465 108.02970606 84.4362793 106.92529297 C58.25833667 101.52413508 27.0289951 104.54128915 4 119 C2.52846889 121.94306222 3.03567104 124.45430977 3.18359375 127.73046875 C3.22549839 129.10475265 3.2651384 130.47910711 3.30273438 131.85351562 C3.36417489 134.0166623 3.43690482 136.17598221 3.54858398 138.3371582 C4.14685338 150.3674852 4.14685338 150.3674852 1.26928711 154.46362305 C-0.7376874 156.20967949 -2.74273075 157.60291056 -5 159 C-5.763125 159.804375 -6.52625 160.60875 -7.3125 161.4375 C-9 163 -9 163 -12 163 C-12.09351907 143.97179099 -12.16401629 124.94362874 -12.20724869 105.91523743 C-12.22785748 97.07964385 -12.25594581 88.24419322 -12.30175781 79.40869141 C-12.34167722 71.7059774 -12.36744505 64.00336695 -12.37635398 56.30055237 C-12.38156012 52.22345151 -12.39376106 48.14664686 -12.42292023 44.06964111 C-12.4501702 40.22827551 -12.45842582 36.38732673 -12.45243073 32.54587364 C-12.4535267 31.1398358 -12.46142372 29.73378331 -12.4768219 28.32782936 C-12.57376159 19.01597229 -12.03186319 12.76760464 -5.859375 5.46875 C-5.16328125 4.8190625 -4.4671875 4.169375 -3.75 3.5 C-2.69039063 2.49453125 -2.69039063 2.49453125 -1.609375 1.46875 C-1.07828125 0.9840625 -0.5471875 0.499375 0 0 Z " fill="#C7E4E9" transform="translate(472,351)"/>
<path d="M0 0 C1 1 1 1 1.09765625 3.72265625 C1.08605469 4.82480469 1.07445312 5.92695312 1.0625 7.0625 C1.05347656 8.16722656 1.04445313 9.27195312 1.03515625 10.41015625 C1.02355469 11.26480469 1.01195312 12.11945312 1 13 C0.32461182 12.88079193 -0.35077637 12.76158386 -1.04663086 12.63876343 C-20.1617495 9.35982413 -38.55557138 8.42054854 -57.89111328 8.60876465 C-60.73793902 8.63068105 -63.58457713 8.62969245 -66.43147278 8.62848854 C-69.22506948 8.62903612 -72.01854671 8.64005657 -74.81210327 8.65449142 C-76.74166445 8.66372358 -78.67124987 8.66737164 -80.60083008 8.67080688 C-87.35986563 8.74327742 -93.74863536 9.2680472 -100.38549805 10.5743103 C-102.97390524 10.99575129 -105.38283443 11.07410769 -108 11 C-101.47621081 0.43767465 -86.7570142 -2.39684099 -75.5 -5.125 C-74.79987793 -5.29596191 -74.09975586 -5.46692383 -73.37841797 -5.64306641 C-49.47286172 -11.22566778 -22.75128835 -9.11362847 0 0 Z " fill="#719DA9" transform="translate(592,510)"/>
<path d="M0 0 C0.65452148 0.16628906 1.30904297 0.33257812 1.98339844 0.50390625 C10.58541056 2.69395177 18.74838315 5.54968193 26.875 9.125 C27.64239502 9.46168701 28.40979004 9.79837402 29.20043945 10.14526367 C32.73400344 11.75577255 35.34030579 13.10973775 38 16 C32.19996749 15.59780796 26.40952235 15.17492343 20.6328125 14.51464844 C8.15071466 13.10355581 -4.19301558 12.60550725 -16.75 12.625 C-18.19589005 12.62282471 -18.19589005 12.62282471 -19.67098999 12.62060547 C-37.37899004 12.62352598 -54.53096156 14.17875659 -72 17 C-72 13.04 -72 9.08 -72 5 C-48.52773028 -2.95754986 -24.35640874 -6.63779052 0 0 Z " fill="#E8F1F3" transform="translate(377,505)"/>
<path d="M0 0 C0 4.95 0 9.9 0 15 C-12.58397084 13.11240437 -12.58397084 13.11240437 -14.93344116 12.47761536 C-17.11525399 11.97336293 -19.06186473 11.85291459 -21.29931641 11.82299805 C-22.5631163 11.80374519 -22.5631163 11.80374519 -23.85244751 11.78410339 C-25.21325943 11.77302299 -25.21325943 11.77302299 -26.6015625 11.76171875 C-27.55203461 11.753647 -28.50250671 11.74557526 -29.48178101 11.73725891 C-31.50085639 11.72342737 -33.51995507 11.71270105 -35.5390625 11.70483398 C-37.57136047 11.69341839 -39.60363102 11.67313638 -41.63574219 11.64331055 C-60.35422611 11.36894037 -76.1815258 13.40695444 -93 22 C-94.76536624 22.80378407 -96.53564741 23.59693722 -98.3125 24.375 C-99.03050781 24.69210937 -99.74851562 25.00921875 -100.48828125 25.3359375 C-100.98714844 25.55507813 -101.48601562 25.77421875 -102 26 C-100.35761106 17.78805528 -93.58945744 12.87729897 -87 8.375 C-64.86069398 -5.00019453 -23.96551767 -11.98275883 0 0 Z " fill="#163145" transform="translate(572,406)"/>
<path d="M0 0 C0.8366217 -0.00903351 1.67324341 -0.01806702 2.53521729 -0.02737427 C13.85242395 -0.10815406 23.42581835 1.1849793 34.25 4.5625 C34.25 9.5125 34.25 14.4625 34.25 19.5625 C32.39375 19.27375 30.5375 18.985 28.625 18.6875 C26.93961223 18.42532857 25.25398893 18.16452897 23.56689453 17.91357422 C21.76907171 17.64115386 19.97359195 17.35324945 18.17919922 17.05908203 C-10.38797248 12.59282805 -39.40535659 14.5435758 -64.60546875 29.5234375 C-65.31316406 29.86632812 -66.02085937 30.20921875 -66.75 30.5625 C-67.41 30.2325 -68.07 29.9025 -68.75 29.5625 C-61.65936973 17.53925736 -51.26014823 10.97940503 -38.75 5.5625 C-38.08935547 5.27294434 -37.42871094 4.98338867 -36.74804688 4.68505859 C-24.99312588 -0.124575 -12.49678665 0.07148121 0 0 Z " fill="#132B3F" transform="translate(537.75,362.4375)"/>
<path d="M0 0 C2.23395728 -0.00958986 4.46694621 -0.04060246 6.70068359 -0.07226562 C16.8271053 -0.14448324 25.98858048 1.10756036 35.89990234 3.24023438 C35.89990234 8.19023437 35.89990234 13.14023437 35.89990234 18.24023438 C30.48759891 18.49796311 25.65340699 18.26994044 20.33618164 17.16552734 C-5.52665208 11.82938423 -36.09050524 14.71585268 -59.03759766 28.61523438 C-60.16488281 29.36933594 -60.16488281 29.36933594 -61.31494141 30.13867188 C-63.10009766 31.24023438 -63.10009766 31.24023438 -65.10009766 31.24023438 C-64.62791648 26.99060382 -62.08581898 24.97598833 -59.10009766 22.24023438 C-58.44267578 21.56734375 -57.78525391 20.89445312 -57.10791016 20.20117188 C-41.68985947 5.09459696 -21.00582744 0.05426694 0 0 Z " fill="#132D41" transform="translate(536.10009765625,440.759765625)"/>
<path d="M0 0 C2.57441805 0.01378893 5.14512901 -0.02022741 7.71923828 -0.05834961 C26.20622549 -0.14454658 45.681189 3.90992843 60.34814453 15.88891602 C62.97314453 18.57641602 62.97314453 18.57641602 62.97314453 20.57641602 C63.57126953 20.82391602 64.16939453 21.07141602 64.78564453 21.32641602 C67.28941372 22.75714127 68.45386841 24.14557422 69.97314453 26.57641602 C69.97314453 27.23641602 69.97314453 27.89641602 69.97314453 28.57641602 C65.55485967 27.16417885 61.31243769 25.49386136 57.03564453 23.70141602 C40.72312715 17.0704599 25.1172928 15.40049275 7.59814453 15.32641602 C6.38642578 15.30579102 5.17470703 15.28516602 3.92626953 15.26391602 C-3.70140541 15.23138862 -10.59321887 16.0830578 -18.00244141 17.91064453 C-21.80897926 18.74858679 -25.15117204 18.80895702 -29.02685547 18.57641602 C-31.08007942 14.46996811 -30.07497637 9.09978088 -30.02685547 4.57641602 C-19.92370703 0.56470337 -10.74669424 -0.0799274 0 0 Z " fill="#152A3F" transform="translate(356.02685546875,362.423583984375)"/>
<path d="M0 0 C1.30259766 -0.01611328 2.60519531 -0.03222656 3.94726562 -0.04882812 C23.51621062 -0.05856876 44.63425502 5.51888619 59.125 19.375 C62.03472683 22.47830533 63.98570217 25.37050543 65.5625 29.3125 C61.15835032 28.68809315 57.55765089 26.96658131 53.625 25 C38.07563461 17.50759809 22.09187739 14.92863322 4.9375 15 C2.96813477 15.00302124 2.96813477 15.00302124 0.95898438 15.00610352 C-9.1274713 15.109774 -18.60382703 16.17522648 -28.4375 18.3125 C-30.4175 18.6425 -32.3975 18.9725 -34.4375 19.3125 C-34.4375 14.3625 -34.4375 9.4125 -34.4375 4.3125 C-23.07026234 0.52342078 -11.91646125 -0.02939433 0 0 Z " fill="#132A3C" transform="translate(361.4375,401.6875)"/>
<path d="M0 0 C1.69962891 0.59361328 1.69962891 0.59361328 3.43359375 1.19921875 C13.84388328 5.19093486 24.04039671 11.10426647 31 20 C32.21484375 22.7421875 32.21484375 22.7421875 33 25 C28.68670537 24.39181745 25.503501 22.81270324 21.6875 20.75 C-1.99460339 8.51183025 -30.74642338 6.73691201 -56.57421875 12.34375 C-60 13 -60 13 -66 13 C-66 8.05 -66 3.1 -66 -2 C-44.09360141 -6.57177014 -21.28984648 -7.73634095 0 0 Z " fill="#122A41" transform="translate(393,446)"/>
<path d="M0 0 C1 1 1 1 1.0625 4.0625 C1.041875 5.031875 1.02125 6.00125 1 7 C-3.8828125 6.0234375 -8.765625 5.046875 -13.6484375 4.0703125 C-14.53370117 3.8940332 -15.41896484 3.71775391 -16.33105469 3.53613281 C-18.09334257 3.18212767 -19.85445522 2.82221458 -21.61425781 2.45605469 C-40.39056237 -1.42001891 -58.99800152 -0.75314231 -77.80517578 2.61083984 C-81.05049947 3.18626209 -84.30476182 3.68714021 -87.5625 4.1875 C-88.55378906 4.34605469 -89.54507812 4.50460937 -90.56640625 4.66796875 C-93 5 -93 5 -96 5 C-95.67 4.01 -95.34 3.02 -95 2 C-92.5234375 0.9375 -92.5234375 0.9375 -89.375 0 C-84.25486037 -1.58055034 -84.25486037 -1.58055034 -79.3125 -3.625 C-55.62125036 -13.45910362 -23.22680304 -9.30410842 0 0 Z " fill="#EAF1F3" transform="translate(592,510)"/>
<path d="M0 0 C-2.86225231 0.85120834 -5.04541379 1.05073627 -8.00097656 0.67333984 C-8.77801941 0.58162506 -9.55506226 0.48991028 -10.35565186 0.39541626 C-11.19219299 0.29328827 -12.02873413 0.19116028 -12.890625 0.0859375 C-23.85709679 -1.12258537 -34.72456986 -1.39211525 -45.75 -1.375 C-47.19589005 -1.37717529 -47.19589005 -1.37717529 -48.67098999 -1.37939453 C-66.3614405 -1.37647691 -83.55297442 0.11866405 -101 3 C-101 1.02 -101 -0.96 -101 -3 C-97.03698264 -3.89836889 -93.06657214 -4.74774242 -89.0859375 -5.56347656 C-87.1150328 -5.97592712 -85.15094743 -6.42058368 -83.1875 -6.8671875 C-55.48630518 -12.70457792 -26.33626573 -9.72270742 0 0 Z " fill="#70A1AC" transform="translate(406,519)"/>
<path d="M0 0 C-0.68707031 0.26554687 -1.37414062 0.53109375 -2.08203125 0.8046875 C-3.43361328 1.33449219 -3.43361328 1.33449219 -4.8125 1.875 C-5.70582031 2.22304688 -6.59914063 2.57109375 -7.51953125 2.9296875 C-10.17711591 3.98832155 -10.17711591 3.98832155 -13 6 C-12.34 6 -11.68 6 -11 6 C-9 6 -7 6 -5 6 C-5.33 7.32 -5.66 8.64 -6 10 C-8.39469729 10.50604924 -10.79051717 11.00499517 -13.1875 11.5 C-13.86103516 11.64308594 -14.53457031 11.78617188 -15.22851562 11.93359375 C-18.87509793 12.68069842 -22.27648957 13.17352282 -26 13 C-21.30131922 5.39261208 -11.93699677 2.04786693 -3.77734375 -0.65234375 C-2 -1 -2 -1 0 0 Z " fill="#8AAAB6" transform="translate(510,508)"/>
<path d="M0 0 C0.66 0.33 1.32 0.66 2 1 C1.57847656 1.39832031 1.15695312 1.79664063 0.72265625 2.20703125 C0.17480469 2.73683594 -0.37304688 3.26664062 -0.9375 3.8125 C-1.75541016 4.59560547 -1.75541016 4.59560547 -2.58984375 5.39453125 C-4.23519092 7.05812198 -4.23519092 7.05812198 -5 10 C-4.34 10 -3.68 10 -3 10 C-3 10.66 -3 11.32 -3 12 C-5.11997834 13.19733988 -7.24513676 14.38298713 -9.375 15.5625 C-10.27992188 16.07586914 -10.27992188 16.07586914 -11.203125 16.59960938 C-12.76978241 17.46127095 -14.38290862 18.23718183 -16 19 C-16.66 18.67 -17.32 18.34 -18 18 C-13.73649575 10.77057974 -7.58180508 3.78457382 0 0 Z " fill="#1A354B" transform="translate(487,374)"/>
<path d="M0 0 C14.52 0 29.04 0 44 0 C44 0.33 44 0.66 44 1 C31.98181423 1.86173931 20.04753921 2.11902069 8 2 C7.67 2.66 7.34 3.32 7 4 C4.69 3.01 2.38 2.02 0 1 C0 0.67 0 0.34 0 0 Z " fill="#6FA4B4" transform="translate(328,544)"/>
<path d="M0 0 C0.33 0 0.66 0 1 0 C1 7.59 1 15.18 1 23 C-0.32 22.67 -1.64 22.34 -3 22 C-2.69471967 18.52015976 -2.37957083 15.04128417 -2.0625 11.5625 C-1.97548828 10.56927734 -1.88847656 9.57605469 -1.79882812 8.55273438 C-1.71181641 7.60849609 -1.62480469 6.66425781 -1.53515625 5.69140625 C-1.456604 4.81685791 -1.37805176 3.94230957 -1.29711914 3.04125977 C-1 1 -1 1 0 0 Z " fill="#C8E2E9" transform="translate(419,396)"/>
<path d="M0 0 C7.66742597 5.96583144 7.66742597 5.96583144 9 11 C4.24518354 10.42365861 1.02951788 8.44931479 -3 6 C-2.01 5.67 -1.02 5.34 0 5 C0 3.35 0 1.7 0 0 Z " fill="#1E3A49" transform="translate(417,460)"/>
<path d="M0 0 C-0.68707031 0.26554687 -1.37414062 0.53109375 -2.08203125 0.8046875 C-3.43361328 1.33449219 -3.43361328 1.33449219 -4.8125 1.875 C-5.70582031 2.22304688 -6.59914063 2.57109375 -7.51953125 2.9296875 C-10.17711591 3.98832155 -10.17711591 3.98832155 -13 6 C-13 6.99 -13 7.98 -13 9 C-15.31 9.33 -17.62 9.66 -20 10 C-19.859375 8.19921875 -19.859375 8.19921875 -19 6 C-16.453125 4.33203125 -16.453125 4.33203125 -13.25 2.8125 C-12.20328125 2.30332031 -11.1565625 1.79414063 -10.078125 1.26953125 C-3.16411683 -1.58205841 -3.16411683 -1.58205841 0 0 Z " fill="#9FBBC4" transform="translate(510,508)"/>
<path d="M0 0 C4.8274799 1.41292095 8.7162359 3.42974154 13 6 C13 6.33 13 6.66 13 7 C7.72684667 6.5547115 2.98229776 5.91626837 -2 4 C-1.34 2.68 -0.68 1.36 0 0 Z " fill="#D4E4E9" transform="translate(402,514)"/>
<path d="M0 0 C4.875 4.625 4.875 4.625 6 8 C1.87248551 7.39301257 -1.3321148 5.96189209 -5 4 C-3.35 2.68 -1.7 1.36 0 0 Z " fill="#1E394A" transform="translate(421,423)"/>
<path d="M0 0 C4.8 3.44615385 4.8 3.44615385 5.8125 6.25 C5.874375 6.8275 5.93625 7.405 6 8 C0.25 6.125 0.25 6.125 -2 5 C-1.34 3.35 -0.68 1.7 0 0 Z " fill="#203A48" transform="translate(420,383)"/>
<path d="M0 0 C0.93423645 3.01031744 1.04449911 3.86650268 0 7 C-2.5625 8.1875 -2.5625 8.1875 -5 9 C-3.90931332 5.22454612 -3.0916909 2.52956528 0 0 Z " fill="#2B4D5C" transform="translate(475,423)"/>
<path d="M0 0 C0.66 1.32 1.32 2.64 2 4 C0.35 5.32 -1.3 6.64 -3 8 C-3.66 7.67 -4.32 7.34 -5 7 C-1.125 1.125 -1.125 1.125 0 0 Z " fill="#314F5E" transform="translate(474,385)"/>
<path d="M0 0 C2.97 0 5.94 0 9 0 C8.34 1.32 7.68 2.64 7 4 C4.69 3.01 2.38 2.02 0 1 C0 0.67 0 0.34 0 0 Z " fill="#7FADBB" transform="translate(328,544)"/>
<path d="M0 0 C0.33 0 0.66 0 1 0 C1.125 2.375 1.125 2.375 1 5 C0.34 5.66 -0.32 6.32 -1 7 C-3.125 6.625 -3.125 6.625 -5 6 C-3.35830472 3.97945196 -1.69088222 1.97956942 0 0 Z " fill="#C2DDE3" transform="translate(299,298)"/>
<path d="M0 0 C-0.33 0.99 -0.66 1.98 -1 3 C-4.0625 4.1875 -4.0625 4.1875 -7 5 C-6.6875 3.0625 -6.6875 3.0625 -6 1 C-3 0 -3 0 0 0 Z " fill="#E6EFF2" transform="translate(503,511)"/>
<path d="M0 0 C0.66 1.32 1.32 2.64 2 4 C0.625 5.5 0.625 5.5 -1 7 C-1.66 7 -2.32 7 -3 7 C-2.38722388 4.03824877 -1.74627478 2.61941217 0 0 Z " fill="#385564" transform="translate(474,465)"/>
<path d="M0 0 C0.99 0.33 1.98 0.66 3 1 C2.34 2.32 1.68 3.64 1 5 C0.01 5 -0.98 5 -2 5 C-1.34 3.35 -0.68 1.7 0 0 Z " fill="#588FA0" transform="translate(592,573)"/>
</svg>
